<?xml version="1.0" encoding="UTF-8" standalone="no"?>
<!-- Created with Inkscape (http://www.inkscape.org/) -->

<svg
   version="1.1"
   id="svg1"
   width="29.141762"
   height="49.121662"
   viewBox="0 0 29.141762 49.121662"
   sodipodi:docname="smiledark.svg"
   inkscape:version="1.2.2 (732a01da63, 2022-12-09)"
   xmlns:inkscape="http://www.inkscape.org/namespaces/inkscape"
   xmlns:sodipodi="http://sodipodi.sourceforge.net/DTD/sodipodi-0.dtd"
   xmlns="http://www.w3.org/2000/svg"
   xmlns:svg="http://www.w3.org/2000/svg">
  <defs
     id="defs1">
    <inkscape:path-effect
       effect="fillet_chamfer"
       id="path-effect14239"
       is_visible="true"
       lpeversion="1"
       nodesatellites_param="F,0,0,1,0,0,0,1 @ F,0,0,1,0,0,0,1 @ F,0,0,1,0,0,0,1 @ F,0,0,1,0,0,0,1 @ F,0,0,1,0,0,0,1 @ F,0,0,1,0,0,0,1 @ F,0,0,1,0,0,0,1 @ F,0,0,1,0,0,0,1 @ F,0,0,1,0,0,0,1 @ F,0,0,1,0,0,0,1 @ F,0,0,1,0,0,0,1 @ F,0,0,1,0,0,0,1 @ F,0,0,1,0,0,0,1 @ F,0,0,1,0,0,0,1 @ F,0,0,1,0,0,0,1 @ F,0,0,1,0,15.356445,0,1 @ F,0,0,1,0,17.070266,0,1 @ F,0,0,1,0,0,0,1 @ F,0,0,1,0,0,0,1 @ F,0,0,1,0,0,0,1 @ F,0,0,1,0,0,0,1 @ F,0,0,1,0,0,0,1 @ F,0,0,1,0,0,0,1 @ F,0,0,1,0,0,0,1 @ F,0,0,1,0,0,0,1 @ F,0,0,1,0,0,0,1 @ F,0,0,1,0,0,0,1 @ F,0,0,1,0,0,0,1 @ F,0,0,1,0,0,0,1 @ F,0,0,1,0,0,0,1"
       unit="px"
       method="auto"
       mode="F"
       radius="0"
       chamfer_steps="1"
       flexible="false"
       use_knot_distance="true"
       apply_no_radius="true"
       apply_with_radius="true"
       only_selected="false"
       hide_knots="false" />
    <inkscape:path-effect
       effect="fillet_chamfer"
       id="path-effect14239-7"
       is_visible="true"
       lpeversion="1"
       nodesatellites_param="F,0,0,1,0,0,0,1 @ F,0,0,1,0,0,0,1 @ F,0,0,1,0,0,0,1 @ F,0,0,1,0,0,0,1 @ F,0,0,1,0,0,0,1 @ F,0,0,1,0,0,0,1 @ F,0,0,1,0,0,0,1 @ F,0,0,1,0,0,0,1 @ F,0,0,1,0,0,0,1 @ F,0,0,1,0,0,0,1 @ F,0,0,1,0,0,0,1 @ F,0,0,1,0,0,0,1 @ F,0,0,1,0,0,0,1 @ F,0,0,1,0,0,0,1 @ F,0,0,1,0,0,0,1 @ F,0,0,1,0,6.4914962,0,1 @ F,0,0,1,0,6.6913602,0,1 @ F,0,0,1,0,0,0,1 @ F,0,0,1,0,0,0,1 @ F,0,0,1,0,0,0,1 @ F,0,0,1,0,0,0,1 @ F,0,0,1,0,0,0,1 @ F,0,0,1,0,0,0,1 @ F,0,0,1,0,0,0,1 @ F,0,0,1,0,0,0,1 @ F,0,0,1,0,0,0,1 @ F,0,0,1,0,0,0,1 @ F,0,0,1,0,0,0,1 @ F,0,0,1,0,0,0,1 @ F,0,0,1,0,0,0,1"
       unit="px"
       method="auto"
       mode="F"
       radius="0"
       chamfer_steps="1"
       flexible="false"
       use_knot_distance="true"
       apply_no_radius="true"
       apply_with_radius="true"
       only_selected="false"
       hide_knots="false" />
  </defs>
  <sodipodi:namedview
     id="namedview1"
     pagecolor="#ffffff"
     bordercolor="#cccccc"
     borderopacity="1"
     inkscape:showpageshadow="0"
     inkscape:pageopacity="1"
     inkscape:pagecheckerboard="0"
     inkscape:deskcolor="#d1d1d1"
     showgrid="false"
     inkscape:zoom="7.7923168"
     inkscape:cx="35.03451"
     inkscape:cy="28.489601"
     inkscape:window-width="1366"
     inkscape:window-height="705"
     inkscape:window-x="-8"
     inkscape:window-y="-8"
     inkscape:window-maximized="1"
     inkscape:current-layer="g1" />
  <g
     inkscape:groupmode="layer"
     inkscape:label="Image"
     id="g1"
     transform="translate(-224.58646,-179.06833)">
    <path
       id="path2453-3"
       style="fill:#fac400;fill-opacity:1;stroke-width:0.0412853;stroke-opacity:0.98017"
       d="m 238.91035,179.06858 c -0.10654,-0.004 -0.28843,0.0393 -0.57166,0.12984 -0.75529,0.24159 -2.23064,0.82136 -3.12613,1.57809 -0.8955,0.75674 -1.21096,1.69045 -1.50886,2.0124 -0.2979,0.32195 -0.57829,0.0323 -0.75354,-0.16092 -0.17525,-0.19316 -0.2454,-0.28988 -0.64846,-0.74059 -0.40307,-0.45071 -1.13912,-1.25539 -1.52467,-1.65784 -0.38555,-0.40245 -0.42058,-0.40244 -0.701,-0.0644 -0.28043,0.33803 -0.80629,1.01396 -1.12174,1.83491 -0.31545,0.82095 -0.4205,1.78676 -0.15761,2.75257 0.26289,0.96582 0.8938,1.93174 1.20923,2.54341 0.0794,0.15394 0.13873,0.28508 0.18877,0.39646 -3.22559,2.48183 -5.20268,6.17185 -5.43616,10.146 h -0.0303 v 0.78353 l -0.14164,23.07658 a 6.4517754,6.4517754 45.175831 0 0 6.45166,6.49137 l 15.81714,0 a 6.732556,6.732556 135.17583 0 0 6.73243,-6.69123 l 0.14041,-22.87672 v -0.78353 h -0.0234 c -0.26078,-4.45598 -2.70952,-8.52449 -6.59151,-10.95161 0.0245,-0.282 0.023,-0.78682 -0.1313,-1.00593 -0.38554,-0.54731 -0.77103,-0.70829 -1.3143,-0.88536 -0.54328,-0.17707 -1.36606,-0.34223 -2.01449,-0.55149 -0.64842,-0.20925 -1.27487,-0.23884 -1.8532,-0.41591 -0.57832,-0.17707 -1.13897,-0.3057 -1.61215,-0.48275 -0.47317,-0.17706 -0.85877,-0.40248 -1.22681,-0.77269 -0.36803,-0.37022 -0.7186,-0.88533 -0.68186,-1.51329 0.0368,-0.62795 0.46088,-1.3686 0.65537,-1.78727 0.12156,-0.26167 0.1533,-0.39751 -0.0242,-0.40362 z"
       sodipodi:nodetypes="sssssssssssccccccccccsssssscsss"
       inkscape:path-effect="#path-effect14239-7"
       inkscape:original-d="m 238.91035,179.06858 c -0.10654,-0.004 -0.28843,0.0393 -0.57166,0.12984 -0.75529,0.24159 -2.23064,0.82136 -3.12613,1.57809 -0.8955,0.75674 -1.21096,1.69045 -1.50886,2.0124 -0.2979,0.32195 -0.57829,0.0323 -0.75354,-0.16092 -0.17525,-0.19316 -0.2454,-0.28988 -0.64846,-0.74059 -0.40307,-0.45071 -1.13912,-1.25539 -1.52467,-1.65784 -0.38555,-0.40245 -0.42058,-0.40244 -0.701,-0.0644 -0.28043,0.33803 -0.80629,1.01396 -1.12174,1.83491 -0.31545,0.82095 -0.4205,1.78676 -0.15761,2.75257 0.26289,0.96582 0.8938,1.93174 1.20923,2.54341 0.0794,0.15394 0.13873,0.28508 0.18877,0.39646 -3.22559,2.48183 -5.20268,6.17185 -5.43616,10.146 h -0.0303 v 0.78353 l -0.18148,29.56795 h 29 l 0.18148,-29.56795 v -0.78353 h -0.0234 c -0.26078,-4.45598 -2.70952,-8.52449 -6.59151,-10.95161 0.0245,-0.282 0.023,-0.78682 -0.1313,-1.00593 -0.38554,-0.54731 -0.77103,-0.70829 -1.3143,-0.88536 -0.54328,-0.17707 -1.36606,-0.34223 -2.01449,-0.55149 -0.64842,-0.20925 -1.27487,-0.23884 -1.8532,-0.41591 -0.57832,-0.17707 -1.13897,-0.3057 -1.61215,-0.48275 -0.47317,-0.17706 -0.85877,-0.40248 -1.22681,-0.77269 -0.36803,-0.37022 -0.7186,-0.88533 -0.68186,-1.51329 0.0368,-0.62795 0.46088,-1.3686 0.65537,-1.78727 0.12156,-0.26167 0.1533,-0.39751 -0.0242,-0.40362 z" />
    <path
       id="path2455-7"
       style="fill:#803300;fill-opacity:1;stroke-width:0.0418394;stroke-opacity:0.98017"
       d="m 230.13354,199.45696 c -1.2157,0.23449 -1.16774,1.0204 -1.18034,2.12185 0.2782,5.09966 4.79367,9.10227 10.27183,9.10519 5.53324,-0.003 10.07349,-4.08376 10.27798,-9.23781 0.013,-1.11302 -0.40786,-1.96524 -1.27258,-1.98923 z"
       sodipodi:nodetypes="cccccc" />
    <rect
       style="fill:#ff8080;fill-opacity:1;stroke-width:0.0393898;stroke-opacity:0.98017"
       id="rect2457-4"
       width="6.4053855"
       height="12.814217"
       x="236.24269"
       y="199.57913"
       ry="3.1483202" />
    <path
       id="path2459-2"
       style="fill:#cf535d;fill-opacity:1;stroke-width:0.0446447;stroke-opacity:0.98017"
       d="m 242.59472,201.40642 h -6.2986 c -0.0346,0.23894 -0.0536,0.48483 -0.0536,0.73674 v 4.66406 c 0,-0.035 2.9e-4,-0.0698 8.6e-4,-0.10461 8.6e-4,-0.0348 0.002,-0.0696 0.003,-0.10415 0.001,-0.0346 0.003,-0.0689 0.005,-0.10321 0.002,-0.0343 0.004,-0.0684 0.007,-0.10251 0.003,-0.0341 0.006,-0.0682 0.009,-0.10203 0.003,-0.0338 0.007,-0.0673 0.0111,-0.10087 0.004,-0.0335 0.008,-0.0671 0.0131,-0.1004 0.005,-0.0333 0.01,-0.0663 0.0151,-0.0992 0.005,-0.033 0.0109,-0.0659 0.0168,-0.0985 0.006,-0.0327 0.0123,-0.065 0.0188,-0.0974 0.007,-0.0324 0.0133,-0.0649 0.0204,-0.0969 0.007,-0.032 0.0146,-0.0638 0.0224,-0.0955 0.008,-0.0317 0.0159,-0.063 0.0242,-0.0943 0.008,-0.0314 0.017,-0.0629 0.026,-0.0939 0.009,-0.031 0.0182,-0.0618 0.0278,-0.0924 0.01,-0.0306 0.0192,-0.061 0.0293,-0.0913 0.0202,-0.0605 0.0417,-0.12008 0.0641,-0.17904 0.0224,-0.059 0.0458,-0.11727 0.0704,-0.17459 0.0246,-0.0573 0.0503,-0.11385 0.077,-0.16944 0.0267,-0.0556 0.0544,-0.11028 0.0831,-0.16406 0.0287,-0.0538 0.0584,-0.10656 0.0891,-0.15844 0.0307,-0.0519 0.0623,-0.10269 0.0948,-0.15259 0.0326,-0.0499 0.0662,-0.0989 0.10056,-0.14674 0.0344,-0.0478 0.0696,-0.0945 0.10572,-0.14018 0.0361,-0.0457 0.0732,-0.0904 0.11107,-0.13387 0.0378,-0.0435 0.0765,-0.0857 0.11603,-0.12685 0.0395,-0.0411 0.0799,-0.0813 0.12099,-0.12006 0.0411,-0.0387 0.0828,-0.0763 0.12535,-0.11257 0.0426,-0.0363 0.0859,-0.0711 0.12992,-0.10484 0.044,-0.0337 0.0885,-0.0661 0.13388,-0.0971 0.0454,-0.0311 0.0914,-0.0608 0.13805,-0.0892 0.0467,-0.0283 0.0941,-0.0552 0.14201,-0.0807 0.024,-0.0128 0.048,-0.0252 0.0722,-0.0372 0.0242,-0.012 0.0487,-0.0236 0.0732,-0.0349 0.0245,-0.0113 0.0492,-0.0224 0.074,-0.033 0.0248,-0.0106 0.0499,-0.0206 0.075,-0.0304 0.0251,-0.01 0.0502,-0.0193 0.0756,-0.0283 0.0254,-0.009 0.051,-0.0179 0.0766,-0.0262 0.0256,-0.008 0.0513,-0.0161 0.0772,-0.0236 0.0259,-0.007 0.0519,-0.0146 0.078,-0.0213 0.0261,-0.007 0.0522,-0.013 0.0786,-0.019 0.0263,-0.006 0.0528,-0.0113 0.0793,-0.0164 0.0266,-0.005 0.0532,-0.01 0.0799,-0.014 0.0267,-0.004 0.0536,-0.008 0.0805,-0.0119 0.027,-0.003 0.0542,-0.006 0.0813,-0.009 0.0272,-0.003 0.0544,-0.005 0.0817,-0.007 0.0273,-0.002 0.0548,-0.003 0.0823,-0.004 0.0275,-8.5e-4 0.0552,-0.002 0.0829,-0.002 h 0.004 c 0.0277,0 0.0554,7.7e-4 0.0829,0.002 0.0275,8.4e-4 0.055,0.002 0.0823,0.004 0.0274,0.002 0.0546,0.004 0.0817,0.007 0.0272,0.003 0.0542,0.005 0.0811,0.009 0.027,0.003 0.054,0.008 0.0807,0.0119 0.0268,0.004 0.0534,0.009 0.0799,0.014 0.0266,0.005 0.053,0.0105 0.0793,0.0164 0.0263,0.006 0.0524,0.0122 0.0785,0.019 0.0261,0.007 0.0521,0.0138 0.078,0.0213 0.0259,0.008 0.0515,0.0154 0.0772,0.0236 0.0256,0.008 0.051,0.0172 0.0764,0.0262 0.0254,0.009 0.0507,0.0185 0.0758,0.0283 0.0251,0.01 0.0499,0.0199 0.0748,0.0304 0.0248,0.0106 0.0496,0.0217 0.0742,0.033 0.0245,0.0113 0.0487,0.0228 0.073,0.0349 0.0243,0.012 0.0485,0.0244 0.0724,0.0372 0.0479,0.0255 0.0952,0.0524 0.14182,0.0807 0.0467,0.0283 0.0927,0.0581 0.13805,0.0892 0.0454,0.0311 0.0901,0.0634 0.13408,0.0971 0.044,0.0337 0.0874,0.0686 0.12991,0.10484 0.0426,0.0363 0.0843,0.0738 0.12536,0.11257 0.041,0.0387 0.0813,0.0789 0.12079,0.12006 0.0395,0.0411 0.0782,0.0834 0.11603,0.12685 0.0378,0.0435 0.0749,0.0882 0.11107,0.13387 0.0361,0.0457 0.0715,0.0924 0.10592,0.14018 0.0344,0.0478 0.0678,0.0968 0.10036,0.14674 0.0326,0.0499 0.0643,0.10071 0.095,0.15259 0.0307,0.0519 0.0603,0.10467 0.089,0.15844 0.0287,0.0538 0.0564,0.10847 0.0831,0.16406 0.0267,0.0556 0.0522,0.11213 0.0768,0.16944 0.0246,0.0573 0.0482,0.11563 0.0706,0.17459 0.0224,0.059 0.0437,0.11851 0.0639,0.17904 0.0101,0.0303 0.02,0.0606 0.0296,0.0913 0.01,0.0306 0.0186,0.0614 0.0276,0.0924 0.009,0.031 0.0176,0.0625 0.026,0.0939 0.008,0.0313 0.0164,0.0626 0.0242,0.0943 0.008,0.0317 0.0152,0.0635 0.0224,0.0955 0.007,0.032 0.0141,0.0645 0.0206,0.0969 0.007,0.0323 0.0129,0.0647 0.0188,0.0974 0.006,0.0327 0.0115,0.0656 0.0168,0.0985 0.005,0.033 0.0102,0.066 0.0149,0.0992 0.005,0.0333 0.009,0.0669 0.0131,0.1004 0.004,0.0335 0.008,0.067 0.0111,0.10087 0.003,0.0338 0.007,0.068 0.009,0.10203 0.003,0.0341 0.005,0.0682 0.007,0.10251 0.002,0.0343 0.004,0.0686 0.005,0.10321 0.002,0.0346 0.002,0.0694 0.003,0.10415 8.6e-4,0.0348 0.001,0.0696 0.001,0.10461 v -4.66406 c 0,-0.25191 -0.0188,-0.4978 -0.0533,-0.73674 z" />
    <path
       id="path2461-6"
       style="fill:#ffffff;fill-opacity:1;stroke-width:0.0452008;stroke-opacity:0.98017"
       d="m 247.85924,199.45689 v 1.34868 c 0,0.33287 -0.24571,0.60086 -0.55091,0.60086 h -16.16015 c -0.30521,0 -0.55092,-0.26799 -0.55092,-0.60086 v -1.34868" />
    <path
       id="path2463-6"
       style="fill:#ffffff;fill-opacity:1;stroke-width:0.0487406;stroke-opacity:0.98017"
       d="m 247.85924,199.45689 v 1.56819 c 0,0.38705 -0.24571,0.69865 -0.55091,0.69865 h -16.16015 c -0.30521,0 -0.55092,-0.3116 -0.55092,-0.69865 v -1.56819" />
    <ellipse
       style="fill:#803300;fill-opacity:1;stroke-width:0.0412853;stroke-opacity:0.98017"
       id="circle2467-0"
       cx="232.42276"
       cy="196.42485"
       rx="1.4647229"
       ry="1.3453579" />
    <rect
       style="fill:#803300;fill-opacity:1;stroke-width:0.0223475;stroke-opacity:0.98017"
       id="rect2469-6"
       width="5.1343565"
       height="1.2451587"
       x="242.11803"
       y="195.80228"
       ry="0.62257934" />
  </g>
</svg>
