<?xml version="1.0" encoding="UTF-8" standalone="no"?>
<!-- Created with Inkscape (http://www.inkscape.org/) -->

<svg
   version="1.1"
   id="svg1"
   width="282.27832"
   height="263.76959"
   viewBox="0 0 282.27832 263.76959"
   sodipodi:docname="vite.svg"
   inkscape:version="1.2.2 (732a01da63, 2022-12-09)"
   xml:space="preserve"
   xmlns:inkscape="http://www.inkscape.org/namespaces/inkscape"
   xmlns:sodipodi="http://sodipodi.sourceforge.net/DTD/sodipodi-0.dtd"
   xmlns:xlink="http://www.w3.org/1999/xlink"
   xmlns="http://www.w3.org/2000/svg"
   xmlns:svg="http://www.w3.org/2000/svg"><defs
     id="defs1"><linearGradient
   inkscape:collect="always"
   id="linearGradient9760"><stop
     style="stop-color:#f9a600;stop-opacity:0.97647059;"
     offset="0"
     id="stop9756" /><stop
     style="stop-color:#f9f100;stop-opacity:0.61960787;"
     offset="1"
     id="stop9758" /></linearGradient><linearGradient
   inkscape:collect="always"
   id="linearGradient7397"><stop
     style="stop-color:#faac00;stop-opacity:0.94509804"
     offset="0"
     id="stop7393" /><stop
     style="stop-color:#f9f100;stop-opacity:0.62880325;"
     offset="1"
     id="stop7395" /></linearGradient><linearGradient
   inkscape:collect="always"
   id="linearGradient4600"><stop
     style="stop-color:#41bad6;stop-opacity:1;"
     offset="0"
     id="stop4596" /><stop
     style="stop-color:#fff200;stop-opacity:0.34901962;"
     offset="1"
     id="stop4598" /></linearGradient><linearGradient
   inkscape:collect="always"
   id="linearGradient13997"><stop
     style="stop-color:#f9a600;stop-opacity:0.9760192;"
     offset="0"
     id="stop13993" /><stop
     style="stop-color:#f9f100;stop-opacity:0.61866128;"
     offset="1"
     id="stop13995" /></linearGradient><linearGradient
   inkscape:collect="always"
   id="linearGradient13989"><stop
     style="stop-color:#00a7ff;stop-opacity:1;"
     offset="0"
     id="stop13985" /><stop
     style="stop-color:#fff200;stop-opacity:0.35011995;"
     offset="1"
     id="stop13987" /></linearGradient><inkscape:path-effect
   effect="bspline"
   id="path-effect10162"
   is_visible="true"
   lpeversion="1"
   weight="33.333333"
   steps="2"
   helper_size="0"
   apply_no_weight="true"
   apply_with_weight="true"
   only_selected="false" /><inkscape:path-effect
   effect="bspline"
   id="path-effect10147"
   is_visible="true"
   lpeversion="1"
   weight="33.333333"
   steps="2"
   helper_size="0"
   apply_no_weight="true"
   apply_with_weight="true"
   only_selected="false" /><inkscape:path-effect
   effect="bspline"
   id="path-effect1597"
   is_visible="true"
   lpeversion="1"
   weight="33.333333"
   steps="2"
   helper_size="0"
   apply_no_weight="true"
   apply_with_weight="true"
   only_selected="false" /><linearGradient
   inkscape:collect="always"
   xlink:href="#linearGradient13989"
   id="linearGradient13991"
   x1="161.418"
   y1="221.46518"
   x2="419.19434"
   y2="221.46518"
   gradientUnits="userSpaceOnUse"
   gradientTransform="matrix(0.97238875,0,0,0.97238875,8.0155386,27.468611)" /><linearGradient
   inkscape:collect="always"
   xlink:href="#linearGradient4600"
   id="linearGradient8212"
   gradientUnits="userSpaceOnUse"
   gradientTransform="matrix(0.97238875,0,0,0.97238875,8.0155386,27.468611)"
   x1="149.16022"
   y1="221.93051"
   x2="431.43851"
   y2="221.93051" /><linearGradient
   inkscape:collect="always"
   xlink:href="#linearGradient4600"
   id="linearGradient8236"
   gradientUnits="userSpaceOnUse"
   gradientTransform="matrix(0.97238875,0,0,0.97238875,8.0155386,27.468611)"
   x1="149.16022"
   y1="221.93051"
   x2="431.43851"
   y2="221.93051" /><linearGradient
   inkscape:collect="always"
   xlink:href="#linearGradient4600"
   id="linearGradient3297"
   gradientUnits="userSpaceOnUse"
   gradientTransform="translate(468.15345,0.1673153)"
   x1="149.16022"
   y1="221.93051"
   x2="431.43851"
   y2="221.93051" /><linearGradient
   inkscape:collect="always"
   xlink:href="#linearGradient13997"
   id="linearGradient3299"
   gradientUnits="userSpaceOnUse"
   gradientTransform="rotate(2.4331138,230.13732,11022.661)"
   x1="233.36346"
   y1="143.41353"
   x2="392.25293"
   y2="143.41353" /><linearGradient
   inkscape:collect="always"
   xlink:href="#linearGradient4600"
   id="linearGradient3301"
   gradientUnits="userSpaceOnUse"
   gradientTransform="translate(468.15345,0.1673153)"
   x1="149.16022"
   y1="221.93051"
   x2="431.43851"
   y2="221.93051" /><linearGradient
   inkscape:collect="always"
   xlink:href="#linearGradient7397"
   id="linearGradient3303"
   gradientUnits="userSpaceOnUse"
   x1="205.60944"
   y1="118.36617"
   x2="408.02722"
   y2="118.36617"
   gradientTransform="matrix(0.27459908,-1.0834944,1.0248178,0.29032145,449.08391,-32.274665)" /><linearGradient
   inkscape:collect="always"
   xlink:href="#linearGradient13989"
   id="linearGradient3305"
   gradientUnits="userSpaceOnUse"
   gradientTransform="translate(468.15345,0.1673153)"
   x1="161.418"
   y1="221.46518"
   x2="419.19434"
   y2="221.46518" /><linearGradient
   inkscape:collect="always"
   xlink:href="#linearGradient4600"
   id="linearGradient3307"
   gradientUnits="userSpaceOnUse"
   gradientTransform="translate(468.15345,0.1673153)"
   x1="149.16022"
   y1="221.93051"
   x2="431.43851"
   y2="221.93051" /><linearGradient
   inkscape:collect="always"
   xlink:href="#linearGradient13997"
   id="linearGradient3309"
   gradientUnits="userSpaceOnUse"
   gradientTransform="rotate(2.4331138,230.13732,11022.661)"
   x1="233.36346"
   y1="143.41353"
   x2="392.25293"
   y2="143.41353" /><linearGradient
   inkscape:collect="always"
   xlink:href="#linearGradient7397"
   id="linearGradient3594"
   gradientUnits="userSpaceOnUse"
   gradientTransform="matrix(0.27459908,-1.0834944,1.0248178,0.29032145,449.08391,-32.274665)"
   x1="205.60944"
   y1="118.36617"
   x2="408.02722"
   y2="118.36617" /><linearGradient
   inkscape:collect="always"
   xlink:href="#linearGradient7397"
   id="linearGradient3596"
   gradientUnits="userSpaceOnUse"
   gradientTransform="matrix(0.27459908,-1.0834944,1.0248178,0.29032145,449.08391,-32.274665)"
   x1="205.60944"
   y1="118.36617"
   x2="408.02722"
   y2="118.36617" /><linearGradient
   inkscape:collect="always"
   xlink:href="#linearGradient7397"
   id="linearGradient1872"
   gradientUnits="userSpaceOnUse"
   gradientTransform="matrix(0.27459908,-1.0834944,1.0248178,0.29032145,449.08391,-32.274665)"
   x1="205.60944"
   y1="118.36617"
   x2="408.02722"
   y2="118.36617" /><linearGradient
   inkscape:collect="always"
   xlink:href="#linearGradient7397"
   id="linearGradient1874"
   gradientUnits="userSpaceOnUse"
   gradientTransform="matrix(0.27459908,-1.0834944,1.0248178,0.29032145,449.08391,-32.274665)"
   x1="205.60944"
   y1="118.36617"
   x2="408.02722"
   y2="118.36617" /><linearGradient
   inkscape:collect="always"
   xlink:href="#linearGradient7397"
   id="linearGradient1876"
   gradientUnits="userSpaceOnUse"
   gradientTransform="matrix(0.27459908,-1.0834944,1.0248178,0.29032145,449.08391,-32.274665)"
   x1="205.60944"
   y1="118.36617"
   x2="408.02722"
   y2="118.36617" /><linearGradient
   inkscape:collect="always"
   xlink:href="#linearGradient7397"
   id="linearGradient1878"
   gradientUnits="userSpaceOnUse"
   gradientTransform="matrix(0.27459908,-1.0834944,1.0248178,0.29032145,449.08391,-32.274665)"
   x1="205.60944"
   y1="118.36617"
   x2="408.02722"
   y2="118.36617" /><linearGradient
   inkscape:collect="always"
   xlink:href="#linearGradient7397"
   id="linearGradient1880"
   gradientUnits="userSpaceOnUse"
   gradientTransform="matrix(0.27459908,-1.0834944,1.0248178,0.29032145,449.08391,-32.274665)"
   x1="205.60944"
   y1="118.36617"
   x2="408.02722"
   y2="118.36617" /><linearGradient
   inkscape:collect="always"
   xlink:href="#linearGradient7397"
   id="linearGradient1882"
   gradientUnits="userSpaceOnUse"
   gradientTransform="matrix(0.27459908,-1.0834944,1.0248178,0.29032145,449.08391,-32.274665)"
   x1="205.60944"
   y1="118.36617"
   x2="408.02722"
   y2="118.36617" /><linearGradient
   inkscape:collect="always"
   xlink:href="#linearGradient7397"
   id="linearGradient1884"
   gradientUnits="userSpaceOnUse"
   gradientTransform="matrix(0.27459908,-1.0834944,1.0248178,0.29032145,449.08391,-32.274665)"
   x1="205.60944"
   y1="118.36617"
   x2="408.02722"
   y2="118.36617" /><linearGradient
   inkscape:collect="always"
   xlink:href="#linearGradient7397"
   id="linearGradient1904"
   gradientUnits="userSpaceOnUse"
   gradientTransform="matrix(0.27459908,-1.0834944,1.0248178,0.29032145,449.08391,-32.274665)"
   x1="205.60944"
   y1="118.36617"
   x2="408.02722"
   y2="118.36617" /><linearGradient
   inkscape:collect="always"
   xlink:href="#linearGradient7397"
   id="linearGradient1906"
   gradientUnits="userSpaceOnUse"
   gradientTransform="matrix(0.27459908,-1.0834944,1.0248178,0.29032145,449.08391,-32.274665)"
   x1="205.60944"
   y1="118.36617"
   x2="408.02722"
   y2="118.36617" /><linearGradient
   inkscape:collect="always"
   xlink:href="#linearGradient7397"
   id="linearGradient1908"
   gradientUnits="userSpaceOnUse"
   gradientTransform="matrix(0.27459908,-1.0834944,1.0248178,0.29032145,449.08391,-32.274665)"
   x1="205.60944"
   y1="118.36617"
   x2="408.02722"
   y2="118.36617" /><linearGradient
   inkscape:collect="always"
   xlink:href="#linearGradient7397"
   id="linearGradient1910"
   gradientUnits="userSpaceOnUse"
   gradientTransform="matrix(0.27459908,-1.0834944,1.0248178,0.29032145,449.08391,-32.274665)"
   x1="205.60944"
   y1="118.36617"
   x2="408.02722"
   y2="118.36617" /><linearGradient
   inkscape:collect="always"
   xlink:href="#linearGradient7397"
   id="linearGradient1912"
   gradientUnits="userSpaceOnUse"
   gradientTransform="matrix(0.27459908,-1.0834944,1.0248178,0.29032145,449.08391,-32.274665)"
   x1="205.60944"
   y1="118.36617"
   x2="408.02722"
   y2="118.36617" /><linearGradient
   inkscape:collect="always"
   xlink:href="#linearGradient7397"
   id="linearGradient1914"
   gradientUnits="userSpaceOnUse"
   gradientTransform="matrix(0.27459908,-1.0834944,1.0248178,0.29032145,449.08391,-32.274665)"
   x1="205.60944"
   y1="118.36617"
   x2="408.02722"
   y2="118.36617" /><linearGradient
   inkscape:collect="always"
   xlink:href="#linearGradient7397"
   id="linearGradient1916"
   gradientUnits="userSpaceOnUse"
   gradientTransform="matrix(0.27459908,-1.0834944,1.0248178,0.29032145,449.08391,-32.274665)"
   x1="205.60944"
   y1="118.36617"
   x2="408.02722"
   y2="118.36617" /><linearGradient
   inkscape:collect="always"
   xlink:href="#linearGradient7397"
   id="linearGradient1918"
   gradientUnits="userSpaceOnUse"
   gradientTransform="matrix(0.27459908,-1.0834944,1.0248178,0.29032145,449.08391,-32.274665)"
   x1="205.60944"
   y1="118.36617"
   x2="408.02722"
   y2="118.36617" /><linearGradient
   inkscape:collect="always"
   xlink:href="#linearGradient7397"
   id="linearGradient1920"
   gradientUnits="userSpaceOnUse"
   gradientTransform="matrix(0.27459908,-1.0834944,1.0248178,0.29032145,449.08391,-32.274665)"
   x1="205.60944"
   y1="118.36617"
   x2="408.02722"
   y2="118.36617" /><linearGradient
   inkscape:collect="always"
   xlink:href="#linearGradient7397"
   id="linearGradient1922"
   gradientUnits="userSpaceOnUse"
   gradientTransform="matrix(0.27459908,-1.0834944,1.0248178,0.29032145,449.08391,-32.274665)"
   x1="205.60944"
   y1="118.36617"
   x2="408.02722"
   y2="118.36617" /><linearGradient
   inkscape:collect="always"
   xlink:href="#linearGradient7397"
   id="linearGradient1924"
   gradientUnits="userSpaceOnUse"
   gradientTransform="matrix(0.27459908,-1.0834944,1.0248178,0.29032145,449.08391,-32.274665)"
   x1="205.60944"
   y1="118.36617"
   x2="408.02722"
   y2="118.36617" /><linearGradient
   inkscape:collect="always"
   xlink:href="#linearGradient7397"
   id="linearGradient1926"
   gradientUnits="userSpaceOnUse"
   gradientTransform="matrix(0.27459908,-1.0834944,1.0248178,0.29032145,449.08391,-32.274665)"
   x1="205.60944"
   y1="118.36617"
   x2="408.02722"
   y2="118.36617" /><linearGradient
   inkscape:collect="always"
   xlink:href="#linearGradient7397"
   id="linearGradient1928"
   gradientUnits="userSpaceOnUse"
   gradientTransform="matrix(0.27459908,-1.0834944,1.0248178,0.29032145,449.08391,-32.274665)"
   x1="205.60944"
   y1="118.36617"
   x2="408.02722"
   y2="118.36617" /><linearGradient
   inkscape:collect="always"
   xlink:href="#linearGradient7397"
   id="linearGradient1930"
   gradientUnits="userSpaceOnUse"
   gradientTransform="matrix(0.27459908,-1.0834944,1.0248178,0.29032145,449.08391,-32.274665)"
   x1="205.60944"
   y1="118.36617"
   x2="408.02722"
   y2="118.36617" />
	
	
<linearGradient
   inkscape:collect="always"
   xlink:href="#linearGradient9760"
   id="linearGradient9764"
   gradientUnits="userSpaceOnUse"
   x1="0"
   y1="32"
   x2="64"
   y2="32"
   gradientTransform="matrix(2.8898124,0,0,2.8898124,214.38101,65.272303)" /><linearGradient
   inkscape:collect="always"
   xlink:href="#linearGradient9760"
   id="linearGradient9766"
   gradientUnits="userSpaceOnUse"
   x1="0"
   y1="32"
   x2="64"
   y2="32"
   gradientTransform="matrix(2.8898124,0,0,2.8898124,214.38101,65.272303)" /><linearGradient
   inkscape:collect="always"
   xlink:href="#linearGradient9760"
   id="linearGradient9770"
   gradientUnits="userSpaceOnUse"
   x1="0"
   y1="32"
   x2="64"
   y2="32"
   gradientTransform="matrix(2.8898124,0,0,2.8898124,214.38101,65.272303)" /><linearGradient
   inkscape:collect="always"
   xlink:href="#linearGradient9760"
   id="linearGradient9774"
   gradientUnits="userSpaceOnUse"
   x1="0"
   y1="32"
   x2="64"
   y2="32"
   gradientTransform="matrix(2.8898124,0,0,2.8898124,214.38101,65.272303)" /><linearGradient
   inkscape:collect="always"
   xlink:href="#linearGradient9760"
   id="linearGradient9778"
   gradientUnits="userSpaceOnUse"
   x1="0"
   y1="32"
   x2="64"
   y2="32"
   gradientTransform="matrix(2.8898124,0,0,2.8898124,214.38101,65.272303)" /><linearGradient
   inkscape:collect="always"
   xlink:href="#linearGradient9760"
   id="linearGradient9782"
   gradientUnits="userSpaceOnUse"
   x1="0"
   y1="32"
   x2="64"
   y2="32"
   gradientTransform="matrix(2.8898124,0,0,2.8898124,214.38101,65.272303)" /><linearGradient
   inkscape:collect="always"
   xlink:href="#linearGradient9760"
   id="linearGradient9786"
   gradientUnits="userSpaceOnUse"
   x1="0"
   y1="32"
   x2="64"
   y2="32"
   gradientTransform="matrix(2.8898124,0,0,2.8898124,214.38101,65.272303)" /><linearGradient
   inkscape:collect="always"
   xlink:href="#linearGradient9760"
   id="linearGradient9788"
   gradientUnits="userSpaceOnUse"
   x1="0"
   y1="32"
   x2="64"
   y2="32"
   gradientTransform="matrix(2.8898124,0,0,2.8898124,214.38101,65.272303)" /><linearGradient
   inkscape:collect="always"
   xlink:href="#linearGradient9760"
   id="linearGradient9790"
   gradientUnits="userSpaceOnUse"
   x1="0"
   y1="32"
   x2="64"
   y2="32"
   gradientTransform="matrix(2.8898124,0,0,2.8898124,214.38101,65.272303)" /><linearGradient
   inkscape:collect="always"
   xlink:href="#linearGradient9760"
   id="linearGradient9792"
   gradientUnits="userSpaceOnUse"
   x1="0"
   y1="32"
   x2="64"
   y2="32"
   gradientTransform="matrix(2.8898124,0,0,2.8898124,214.38101,65.272303)" /><linearGradient
   inkscape:collect="always"
   xlink:href="#linearGradient9760"
   id="linearGradient9796"
   gradientUnits="userSpaceOnUse"
   x1="0"
   y1="32"
   x2="64"
   y2="32"
   gradientTransform="matrix(2.8898124,0,0,2.8898124,214.38101,65.272303)" /><linearGradient
   inkscape:collect="always"
   xlink:href="#linearGradient9760"
   id="linearGradient9800"
   gradientUnits="userSpaceOnUse"
   x1="0"
   y1="32"
   x2="64"
   y2="32"
   gradientTransform="matrix(2.8898124,0,0,2.8898124,214.38101,65.272303)" /><linearGradient
   inkscape:collect="always"
   xlink:href="#linearGradient9760"
   id="linearGradient9804"
   gradientUnits="userSpaceOnUse"
   x1="0"
   y1="32"
   x2="64"
   y2="32"
   gradientTransform="matrix(2.8898124,0,0,2.8898124,214.38101,65.272303)" /><linearGradient
   inkscape:collect="always"
   xlink:href="#linearGradient9760"
   id="linearGradient9808"
   gradientUnits="userSpaceOnUse"
   x1="0"
   y1="32"
   x2="64"
   y2="32"
   gradientTransform="matrix(2.8898124,0,0,2.8898124,214.38101,65.272303)" /><linearGradient
   inkscape:collect="always"
   xlink:href="#linearGradient9760"
   id="linearGradient9812"
   gradientUnits="userSpaceOnUse"
   x1="0"
   y1="32"
   x2="64"
   y2="32"
   gradientTransform="matrix(2.8898124,0,0,2.8898124,214.38101,65.272303)" />
	
	
	
	
	
	
	
	
	
	
	
	
	
	
	
	
	
	
	
	
	
	
	
	
	
<linearGradient
   inkscape:collect="always"
   xlink:href="#linearGradient9760"
   id="linearGradient10092"
   gradientUnits="userSpaceOnUse"
   gradientTransform="matrix(2.8898124,0,0,2.8898124,214.38101,65.272303)"
   x1="0"
   y1="32"
   x2="64"
   y2="32" /><linearGradient
   inkscape:collect="always"
   xlink:href="#linearGradient9760"
   id="linearGradient10094"
   gradientUnits="userSpaceOnUse"
   gradientTransform="matrix(2.8898124,0,0,2.8898124,214.38101,65.272303)"
   x1="0"
   y1="32"
   x2="64"
   y2="32" /><linearGradient
   inkscape:collect="always"
   xlink:href="#linearGradient4600"
   id="linearGradient10096"
   gradientUnits="userSpaceOnUse"
   gradientTransform="matrix(0.97238875,0,0,0.97238875,8.0155386,27.468611)"
   x1="149.16022"
   y1="221.93051"
   x2="431.43851"
   y2="221.93051" /><linearGradient
   inkscape:collect="always"
   xlink:href="#linearGradient4600"
   id="linearGradient10098"
   gradientUnits="userSpaceOnUse"
   gradientTransform="matrix(0.97238875,0,0,0.97238875,8.0155386,27.468611)"
   x1="149.16022"
   y1="221.93051"
   x2="431.43851"
   y2="221.93051" /></defs><sodipodi:namedview
     id="namedview1"
     pagecolor="#ffffff"
     bordercolor="#cccccc"
     borderopacity="1"
     inkscape:showpageshadow="0"
     inkscape:pageopacity="1"
     inkscape:pagecheckerboard="0"
     inkscape:deskcolor="#d1d1d1"
     showgrid="false"
     inkscape:zoom="0.68875"
     inkscape:cx="229.40109"
     inkscape:cy="207.6225"
     inkscape:window-width="1366"
     inkscape:window-height="705"
     inkscape:window-x="-8"
     inkscape:window-y="-8"
     inkscape:window-maximized="1"
     inkscape:current-layer="g1"
     showguides="true" /><g
     inkscape:groupmode="layer"
     inkscape:label="Image"
     id="g1"
     transform="translate(-149.16021,-61.630809)"><ellipse
       style="fill:#ffffff;fill-opacity:1;stroke-width:6.22329"
       id="path11019"
       cx="312.28693"
       cy="154.12148"
       rx="37.436443"
       ry="39.932209" /><path
       id="path11561"
       style="fill:url(#linearGradient13991);fill-opacity:1;stroke:none;stroke-width:8.14861;stroke-dasharray:none;stroke-opacity:1"
       d="m 252.47066,176.62227 c -0.912,0.0292 -2.14679,0.26433 -3.26474,0.67611 -1.1179,0.41177 -2.1169,1.00012 -2.73484,1.50037 -0.6179,0.50028 -0.85392,0.91094 -0.41213,1.58772 0.44183,0.67678 1.5592,1.61867 2.23537,2.44237 0.67621,0.82372 0.91241,1.52998 0.70649,2.05874 -0.20589,0.52875 -0.85417,0.88146 -1.41298,1.1756 -0.55884,0.29412 -1.02836,0.52944 -1.61623,0.47099 -0.58787,-0.0584 -1.29523,-0.41134 -2.44237,-0.79386 -1.14712,-0.38251 -2.73422,-0.79565 -4.44032,-0.9135 -1.70609,-0.1178 -3.52999,0.0594 -5.29495,0.47097 -1.76498,0.41174 -3.46998,1.05855 -5.02909,1.941 -1.5591,0.88245 -2.97232,1.99999 -4.35485,3.44134 -1.38252,1.44136 -2.73554,3.207 -3.61796,4.91322 -0.88243,1.70624 -1.29262,3.3532 -1.38072,4.94172 -0.0881,1.58851 0.1454,3.11759 0.35135,4.35297 0.20591,1.23536 0.38383,2.17656 0.67802,3.44132 0.29417,1.26479 0.70489,2.85402 0.82233,4.38336 0.11755,1.52932 -0.059,2.99995 -0.17662,4.41184 -0.11768,1.41185 -0.17576,2.76444 -0.38172,3.82308 -0.20598,1.05861 -0.55885,1.82205 -0.97051,2.41008 -0.41163,0.58802 -0.88328,1.00007 -1.11862,1.20599 -0.23535,0.20594 -0.23542,0.20623 -0.37224,0.27159 -0.13683,0.0654 -0.41096,0.19581 -0.6932,0.1785 -0.28225,-0.0173 -0.57242,-0.18269 -0.80146,-0.42161 -0.22904,-0.23894 -0.39572,-0.5521 -0.42733,-0.90593 -0.0315,-0.3538 0.0719,-0.74783 0.29057,-1.33893 0.21873,-0.59106 0.55287,-1.37859 0.66093,-2.62468 0.10807,-1.24609 -0.009,-2.95091 -0.33236,-4.59795 -0.32338,-1.64707 -0.85286,-3.2354 -1.76434,-4.64735 -0.91151,-1.41193 -2.68262,-3.62927 -3.03113,-2.85448 -0.63698,1.4161 -1.43053,8.12025 -1.34463,7.20176 0.32948,-3.52289 -2.65437,-5.52581 -3.56669,-3.99591 -0.84221,1.4123 -1.42059,3.96299 -2.26574,5.12024 -2.44812,-6.13445 -4.93818,-11.4333 -7.56831,-11.25846 -8.04,0.31232 -15.92258,3.60803 -21.77998,9.11805 -1.57516,1.33799 -2.64254,2.97048 -3.82118,4.27129 -4.5526,5.98507 -7.04439,13.51318 -6.80674,21.04121 0.1808,7.07073 2.60712,14.08361 6.94918,19.67947 0.22406,0.29736 0.71484,0.90498 1.05595,1.30856 3.81674,4.48335 8.805,7.95706 14.33134,9.98786 0.33281,0.12517 1.0799,0.37888 1.57633,0.53559 4.44355,1.42224 9.16003,1.72592 13.79387,1.42628 2.94576,0.19862 5.89549,0.22705 8.84645,0.18993 4.16165,-0.007 8.32369,-8e-4 12.48532,10e-4 -0.80216,7.86558 -1.32541,15.95923 -4.50108,23.30884 -2.12337,5.03082 -5.36406,9.52684 -9.12564,13.45961 1.62266,-0.16916 3.42997,-0.42955 4.91891,-0.66852 1.42902,-0.23954 3.07027,-0.56899 4.34536,-0.85464 5.51382,-1.32771 11.13896,-3.08239 15.58672,-6.74596 3.22711,-2.64385 5.51202,-6.21952 7.55878,-9.80553 3.22333,-5.9452 5.72367,-12.24367 8.45713,-18.42032 0.17968,-0.57741 1.02065,-0.1454 1.49278,-0.27728 46.66432,-0.005 93.32956,0.0227 139.9936,-0.0341 8.47373,-0.36329 16.56066,-5.58099 20.3024,-13.20702 3.79893,-7.46822 3.39851,-16.93305 -1.21927,-23.95646 -3.0692,-4.86558 -7.95532,-8.50468 -13.45584,-10.16072 -1.48516,-0.48936 -2.98167,-0.9516 -4.48779,-1.4358 -0.53446,-5.15384 -0.86814,-10.47848 -3.11087,-15.23914 -3.97298,-9.05347 -12.42051,-15.87706 -21.99272,-18.20192 -2.50704,-0.30923 -4.97273,-0.41243 -7.3024,-0.021 -2.98765,0.40862 -4.51603,1.60517 -6.31103,2.93617 -0.31163,0.52042 0.35438,0.93597 0.4577,1.68459 0.10329,0.74863 -0.35291,1.82892 -0.97618,2.24483 -0.62326,0.41593 -1.41367,0.16716 -2.01695,-0.18612 -0.60327,-0.35323 -1.02028,-0.81175 -1.54025,-1.41489 -0.51997,-0.60312 -1.14438,-1.3514 -1.47758,-2.01694 -0.33312,-0.66557 -0.37362,-1.24697 -0.29056,-1.95429 0.083,-0.7073 0.29074,-1.53966 0.35324,-1.91438 0.0626,-0.37476 -0.0217,-0.29132 -0.56215,-0.0626 -0.54049,0.22871 -1.53744,0.60267 -2.26575,1.22687 -0.72831,0.62423 -1.18533,1.49786 -1.12242,2.28854 0.063,0.79069 0.64366,1.49741 1.45477,2.53733 0.81111,1.03993 1.85139,2.41322 2.10051,3.43186 0.24912,1.01861 -0.29194,1.68435 -0.89451,1.72637 -0.60258,0.042 -1.2668,-0.53984 -2.1404,-1.47569 -0.8736,-0.93584 -1.95618,-2.2266 -2.80891,-3.24573 -0.85273,-1.0191 -1.47723,-1.76664 -1.93528,-1.95426 -0.45804,-0.18766 -0.7475,0.18563 -1.413,0.91351 -0.66548,0.72788 -1.70616,1.80886 -2.72535,3.3065 -1.0192,1.49763 -2.01658,3.41143 -2.78613,5.24178 -0.76954,1.83037 -1.31175,3.57688 -1.58203,5.46969 -0.27028,1.89281 -0.26968,3.93237 -0.26968,5.86662 0,1.93422 -3.6e-4,3.76439 -0.0835,5.05375 -0.0833,1.28938 -0.24933,2.03671 -0.70649,2.53543 -0.4572,0.49872 -1.2061,0.74848 -2.43289,0.45771 -1.2268,-0.29078 -2.93127,-1.12156 -4.38715,-1.78714 -1.45586,-0.66559 -2.66199,-1.16614 -3.84777,-1.24968 -1.18575,-0.0835 -2.35196,0.25048 -3.39195,0.62485 -1.04001,0.37436 -1.95366,0.78964 -2.59812,0.83184 -0.64445,0.0422 -1.02047,-0.29088 -1.42629,-0.9667 -0.40582,-0.67578 -0.84193,-1.69474 -1.55923,-2.71394 -0.71731,-1.01921 -1.7162,-2.03734 -2.81843,-2.65128 -1.10221,-0.61395 -2.30739,-0.82325 -3.18114,-0.85463 -0.87375,-0.0314 -1.41484,0.11522 -1.696,0.31336 -0.28112,0.19811 -0.30181,0.44783 -0.21838,0.82235 0.0834,0.37452 0.27102,0.87412 0.86412,1.33133 0.59312,0.45723 1.59157,0.87138 2.14229,1.28767 0.55075,0.41629 0.65337,0.83295 0.61155,1.19649 -0.0418,0.36355 -0.229,0.67644 -0.43681,0.91541 -0.2078,0.23897 -0.4357,0.40451 -0.71601,0.44632 -0.28029,0.0417 -0.6137,-0.0406 -1.11293,-0.36276 -0.49921,-0.32205 -1.16389,-0.88409 -1.77765,-1.70548 -0.61376,-0.82137 -1.17553,-1.90261 -1.52885,-2.49553 -0.35331,-0.593 -0.49841,-0.69826 -1.14331,-0.65713 -0.64488,0.0413 -1.789,0.22894 -2.50694,0.47859 -0.71793,0.24967 -1.01048,0.56241 -0.7084,1.14524 0.3021,0.58279 1.19789,1.43546 1.60293,2.20495 0.40496,0.76949 0.32025,1.45514 0.0399,1.84981 -0.28037,0.39468 -0.75716,0.49893 -1.2041,0.4577 -0.44695,-0.0413 -0.86339,-0.22931 -1.37312,-0.69698 -0.50971,-0.46771 -1.11334,-1.21635 -1.47757,-1.81944 -0.36425,-0.60312 -0.48926,-1.06064 -0.65523,-1.33134 -0.16596,-0.27072 -0.37277,-0.35377 -0.75778,-0.32286 -0.38502,0.0309 -0.94648,0.17765 -1.54975,0.40642 -0.60327,0.22878 -1.24842,0.53986 -1.52885,0.70651 -0.28041,0.16664 -0.19682,0.18815 -0.0721,0.31337 0.12459,0.12517 0.29066,0.35367 0.52988,0.65522 0.23923,0.30155 0.55094,0.67476 0.7065,0.99708 0.15558,0.32234 0.15532,0.59401 0.0721,0.80146 -0.0831,0.20747 -0.24862,0.35299 -0.42542,0.50897 -0.17679,0.156 -0.36512,0.32132 -0.58305,0.40453 -0.21792,0.0832 -0.4677,0.0849 -0.76917,0.001 -0.30147,-0.083 -0.65516,-0.24922 -0.91541,-0.4881 -0.26027,-0.23886 -0.42536,-0.55102 -0.60204,-0.83185 -0.17668,-0.2808 -0.36525,-0.5311 -0.59445,-0.51087 -0.22922,0.0203 -0.49839,0.31226 -0.88314,0.69699 -0.38473,0.38475 -0.88382,0.8621 -1.26866,1.27817 -0.38484,0.41604 -0.65494,0.77026 -0.92491,0.97808 -0.26997,0.20784 -0.5409,0.27023 -0.83184,0.2393 -0.29095,-0.0309 -0.60343,-0.15528 -0.80147,-0.40452 -0.19805,-0.24927 -0.28161,-0.62353 -0.25068,-1.02938 0.0309,-0.40583 0.17714,-0.84429 0.52037,-1.35412 0.34326,-0.50982 0.88503,-1.09054 1.30095,-1.58962 0.41591,-0.49909 0.70574,-0.91634 0.95529,-1.49848 0.24957,-0.58212 0.45851,-1.33005 0.64574,-2.50505 0.18722,-1.17497 0.35356,-2.77685 0.43681,-4.30547 0.0832,-1.52862 0.0823,-2.98366 0.0304,-4.47071 -0.0519,-1.48703 -0.15544,-3.0067 -0.29058,-4.33776 -0.13507,-1.33106 -0.30121,-2.47362 -0.50897,-3.29511 -0.20777,-0.82149 -0.45769,-1.32083 -0.69512,-1.68647 -0.23742,-0.36566 -0.46214,-0.59764 -0.6932,-0.47861 -0.23107,0.11903 -0.46717,0.58948 -1.20219,1.11862 -0.73501,0.52913 -1.96958,1.11698 -2.99882,1.47 -1.02928,0.35298 -1.85357,0.47059 -2.70637,0.35324 -0.85279,-0.11731 -1.73464,-0.47044 -2.55822,-0.85275 -0.82357,-0.3823 -1.58887,-0.79266 -2.14799,-1.32183 -0.55911,-0.52918 -0.91141,-1.1764 -1.14712,-1.26488 -0.23571,-0.0885 -0.35344,0.3815 -0.58875,1.1756 -0.2353,0.79412 -0.58946,1.91077 -1.23637,2.82222 -0.64692,0.91145 -1.58749,1.61782 -2.55823,2.47085 -0.9707,0.85303 -1.9711,1.85342 -3.55909,2.64748 -1.58796,0.79408 -3.76328,1.3817 -5.85142,1.58773 -2.08815,0.20603 -4.08859,0.0306 -5.85332,-0.4691 -1.76474,-0.49974 -3.29394,-1.32396 -4.47071,-2.41199 -1.17675,-1.08803 -2.00032,-2.44047 -2.6475,-3.58758 -0.64713,-1.14709 -1.11853,-2.08774 -1.35411,-2.85257 -0.23555,-0.76484 -0.23478,-1.3548 -0.0285,-1.67891 0.2063,-0.32408 0.61737,-0.38208 0.97049,-0.32285 0.35311,0.0592 0.64732,0.23484 0.97047,0.85274 0.32318,0.61791 0.67642,1.67795 1.4415,2.67786 0.76509,0.99988 1.94207,1.94089 3.29511,2.8526 1.35305,0.9117 2.8817,1.79445 4.61695,2.17648 1.73527,0.38201 3.6757,0.26366 5.35193,-0.20701 1.67625,-0.47067 3.08921,-1.2932 4.26561,-2.1461 1.1764,-0.8529 2.11737,-1.73525 2.85259,-2.91147 0.73519,-1.17624 1.26476,-2.64815 1.3826,-4.26561 0.11781,-1.61743 -0.17634,-3.38082 -0.6761,-4.82205 -0.49976,-1.44122 -1.20495,-2.55888 -2.02834,-3.50021 -0.82339,-0.94137 -1.76532,-1.70751 -2.88298,-2.23726 -1.11766,-0.52974 -2.41109,-0.82251 -3.64648,-1.05785 -1.23536,-0.23536 -2.41177,-0.41238 -3.2647,-0.58875 -0.85294,-0.17636 -1.38394,-0.3535 -1.82513,-0.52988 -0.44121,-0.17638 -0.7927,-0.35296 -1.05784,-0.79386 -0.26522,-0.44092 -0.44237,-1.14596 -0.32478,-1.64661 0.11767,-0.50067 0.53,-0.79474 0.70652,-1.08824 0.17649,-0.2935 0.11595,-0.58856 -0.20702,-0.82423 -0.32309,-0.23571 -0.91122,-0.41094 -1.82324,-0.38175 z m -62.85582,41.36261 c 7.34625,0 13.34186,5.83086 13.34186,13.02848 0,7.19765 -5.99561,13.0304 -13.34186,13.0304 -7.34624,0 -13.33995,-5.83275 -13.33995,-13.0304 0,-7.19762 5.99371,-13.02848 13.33995,-13.02848 z m 0,1.71878 c -6.44032,0 -11.62118,5.06498 -11.62118,11.3097 0,6.24473 5.18086,11.30972 11.62118,11.30972 6.44031,0 11.62308,-5.06499 11.62308,-11.30972 0,-6.24472 -5.18277,-11.3097 -11.62308,-11.3097 z" /><path
       id="path9139"
       style="fill:url(#linearGradient10092);fill-opacity:1;stroke-width:2.88981"
       d="m 306.8485,105.73487 c -28.72758,0 -52.0152,23.28951 -52.0152,52.0171 0,3.85312 0.43014,7.6042 1.225,11.21856 20.80651,1.01645 38.37071,15.43682 42.7794,35.18451 3.76175,-1.29502 7.74542,-1.88539 11.73894,-1.73965 4.40557,0.19011 8.72361,1.27252 12.67522,3.17735 5.20435,-12.40296 16.47318,-21.14674 29.64269,-23.6469 3.80626,-7.22882 5.97105,-15.45674 5.97105,-24.19387 0,-28.72759 -23.28949,-52.0171 -52.0171,-52.0171 z m 0,17.33967 c 19.15078,0 34.67935,15.52667 34.67935,34.67743 0,1.59806 -1.29252,2.89057 -2.89058,2.89057 -1.59806,0 -2.89057,-1.29251 -2.89057,-2.89057 0,-15.96042 -12.94065,-28.89819 -28.8982,-28.89819 -1.59806,0 -2.88867,-1.29249 -2.88867,-2.89056 0,-1.59808 1.29061,-2.88868 2.88867,-2.88868 z" /><path
       fill-rule="evenodd"
       clip-rule="evenodd"
       fill="#231f20"
       d="m 396.43921,154.85649 h -28.89813 c -1.59807,0 -2.88982,1.29175 -2.88982,2.88983 0,1.59804 1.29175,2.8898 2.88982,2.8898 h 28.89813 c 1.59806,0 2.88981,-1.29176 2.88981,-2.8898 0,-1.59808 -1.29175,-2.88983 -2.88981,-2.88983 z"
       id="path9141"
       style="fill:url(#linearGradient9766);fill-opacity:1;stroke-width:2.88981" /><path
       fill-rule="evenodd"
       clip-rule="evenodd"
       fill="#231f20"
       d="m 356.90657,128.84818 c 0.80048,1.38422 2.56615,1.85816 3.95037,1.05767 l 25.02579,-14.44907 c 1.38421,-0.79757 1.85814,-2.56614 1.05476,-3.94746 -0.79468,-1.38425 -2.56326,-1.85528 -3.94458,-1.05479 l -25.02578,14.44907 c -1.38424,0.80046 -1.85527,2.56036 -1.06056,3.94458 z"
       id="path9145"
       style="fill:url(#linearGradient9770);fill-opacity:1;stroke-width:2.88981" /><path
       fill-rule="evenodd"
       clip-rule="evenodd"
       fill="#231f20"
       d="m 335.75315,107.69476 c 1.38422,0.7976 3.14989,0.32654 3.95038,-1.05768 L 354.15258,81.6113 c 0.80048,-1.384219 0.32654,-3.152772 -1.06055,-3.950362 -1.38135,-0.797588 -3.14412,-0.323664 -3.94461,1.05766 l -14.44617,25.028682 c -0.80337,1.38422 -0.32943,3.14699 1.0519,3.94748 z"
       id="path9149"
       style="fill:url(#linearGradient9774);fill-opacity:1;stroke-width:2.88981" /><path
       fill-rule="evenodd"
       clip-rule="evenodd"
       fill="#231f20"
       d="m 306.85503,99.950047 c 1.60094,0 2.89271,-1.288841 2.89557,-2.889809 V 68.162127 c 0,-1.598071 -1.29173,-2.889823 -2.89557,-2.889823 -1.5923,0 -2.88403,1.291752 -2.88693,2.889823 l 0.002,28.898111 c 0,1.598079 1.29174,2.889809 2.88404,2.889809 z"
       id="path9153"
       style="fill:url(#linearGradient9778);fill-opacity:1;stroke-width:2.88981" /><path
       fill-rule="evenodd"
       clip-rule="evenodd"
       fill="#231f20"
       d="m 274.01808,106.6313 c 0.7947,1.38423 2.56327,1.85815 3.93883,1.06057 1.3871,-0.80048 1.86392,-2.56327 1.06344,-3.95039 L 264.57129,78.715721 c -0.7976,-1.381341 -2.56617,-1.855264 -3.95326,-1.054783 -1.37845,0.794696 -1.85239,2.56326 -1.05479,3.944595 z"
       id="path9157"
       style="fill:url(#linearGradient9782);fill-opacity:1;stroke-width:2.88981" /><path
       fill-rule="evenodd"
       clip-rule="evenodd"
       fill="#231f20"
       d="m 227.83021,115.4539 25.03156,14.44617 c 1.37843,0.79759 3.14411,0.32656 3.93882,-1.05189 0.80048,-1.38422 0.33231,-3.14989 -1.0519,-3.95038 l -25.02867,-14.44905 c -1.38132,-0.80049 -3.14989,-0.32655 -3.95038,1.06057 -0.79179,1.37842 -0.32075,3.14698 1.06057,3.94458 z"
       id="path9161"
       style="fill:url(#linearGradient9786);fill-opacity:1;stroke-width:2.88981" /><path
       fill-rule="evenodd"
       clip-rule="evenodd"
       fill="#231f20"
       d="m 364.72929,176.24111 11.16335,2.99094 c 1.54605,0.41904 3.12679,-0.50859 3.54003,-2.04886 0.41611,-1.53737 -0.49706,-3.11812 -2.04312,-3.53425 l -11.16333,-2.99096 c -1.5345,-0.41901 -3.1239,0.49993 -3.54003,2.04311 -0.41613,1.54315 0.50861,3.12389 2.0431,3.54002 z"
       id="path9163"
       style="fill:url(#linearGradient9788);fill-opacity:1;stroke-width:2.88981" /><path
       fill-rule="evenodd"
       clip-rule="evenodd"
       fill="#231f20"
       d="m 249.05877,157.74632 c 0.002,-1.60097 -1.28596,-2.88983 -2.88402,-2.89562 l -28.90391,0.007 c -1.59516,0 -2.88982,1.28596 -2.88982,2.8898 0.002,1.59228 1.29466,2.88981 2.89271,2.88981 l 28.90102,-0.007 c 1.59228,0 2.88691,-1.28886 2.88402,-2.88402 z"
       id="path9165"
       style="fill:url(#linearGradient9790);fill-opacity:1;stroke-width:2.88981" /><path
       fill-rule="evenodd"
       clip-rule="evenodd"
       fill="#231f20"
       d="m 366.22622,144.82596 11.16333,-2.99096 c 1.54606,-0.41325 2.45635,-2.00264 2.04022,-3.5458 -0.41034,-1.5345 -1.98819,-2.45057 -3.53713,-2.03732 l -11.16335,2.99096 c -1.54026,0.40746 -2.45634,1.99686 -2.0431,3.54002 0.40747,1.54317 1.99976,2.45055 3.54003,2.0431 z"
       id="path9167"
       style="fill:url(#linearGradient9792);fill-opacity:1;stroke-width:2.88981" /><path
       fill-rule="evenodd"
       clip-rule="evenodd"
       fill="#231f20"
       d="m 347.72853,116.8728 c 1.12413,1.1328 2.95339,1.12123 4.08619,0 l 8.17239,-8.17238 c 1.13281,-1.13281 1.12703,-2.95918 -0.007,-4.08909 -1.12124,-1.12703 -2.9505,-1.12993 -4.08041,0.002 l -8.17239,8.17238 c -1.1328,1.12125 -1.12702,2.95918 0,4.08621 z"
       id="path9171"
       style="fill:url(#linearGradient9796);fill-opacity:1;stroke-width:2.88981" /><path
       fill-rule="evenodd"
       clip-rule="evenodd"
       fill="#231f20"
       d="m 321.81848,101.91513 c 1.53449,0.41902 3.1152,-0.5086 3.54001,-2.043096 l 2.99095,-11.16335 c 0.41325,-1.546043 -0.50862,-3.129658 -2.04887,-3.540022 -1.53449,-0.416133 -3.12099,0.497055 -3.53426,2.043111 l -2.99093,11.16334 c -0.4248,1.534488 0.50281,3.123887 2.0431,3.540017 z"
       id="path9175"
       style="fill:url(#linearGradient9800);fill-opacity:1;stroke-width:2.88981" /><path
       fill-rule="evenodd"
       clip-rule="evenodd"
       fill="#231f20"
       d="m 288.36022,99.872034 c 0.40168,1.540266 1.99687,2.456336 3.54001,2.043096 1.53738,-0.40747 2.4448,-1.996862 2.04312,-3.540017 l -2.99096,-11.16334 c -0.41903,-1.546056 -2.00264,-2.459244 -3.54581,-2.040216 -1.53449,0.410341 -2.45635,1.988189 -2.03732,3.537127 z"
       id="path9179"
       style="fill:url(#linearGradient9804);fill-opacity:1;stroke-width:2.88981" /><path
       id="path9863"
       style="fill:url(#linearGradient10094);fill-opacity:1;stroke-width:2.88981"
       d="m 306.8485,105.73487 c -28.72758,0 -52.0152,23.28951 -52.0152,52.0171 0,3.85312 0.43014,7.6042 1.225,11.21856 20.80651,1.01645 38.37071,15.43682 42.7794,35.18451 3.76175,-1.29502 7.74542,-1.88539 11.73894,-1.73965 4.40557,0.19011 8.72361,1.27252 12.67522,3.17735 5.20435,-12.40296 16.47318,-21.14674 29.64269,-23.6469 3.80626,-7.22882 5.97105,-15.45674 5.97105,-24.19387 0,-28.72759 -23.28949,-52.0171 -52.0171,-52.0171 z m 0,17.33967 c 19.15078,0 34.67935,15.52667 34.67935,34.67743 0,1.59806 -1.29252,2.89057 -2.89058,2.89057 -1.59806,0 -2.89057,-1.29251 -2.89057,-2.89057 0,-15.96042 -12.94065,-28.89819 -28.8982,-28.89819 -1.59806,0 -2.88867,-1.29249 -2.88867,-2.89056 0,-1.59808 1.29061,-2.88868 2.88867,-2.88868 z" /><path
       fill-rule="evenodd"
       clip-rule="evenodd"
       fill="#231f20"
       d="m 261.89821,116.8728 c 1.11836,1.13859 2.95628,1.12703 4.0862,0 1.12991,-1.12125 1.11835,-2.9505 0,-4.0862 l -8.17239,-8.17239 c -1.1357,-1.13281 -2.96206,-1.12702 -4.08908,0.007 -1.12703,1.12126 -1.1328,2.95051 0.002,4.08042 z"
       id="path9183"
       style="fill:url(#linearGradient9808);fill-opacity:1;stroke-width:2.88981" /><path
       fill-rule="evenodd"
       clip-rule="evenodd"
       fill="#231f20"
       d="m 248.98364,139.2486 -11.16624,-2.99385 c -1.54893,-0.41612 -3.12966,0.50572 -3.54002,2.04601 -0.41613,1.53449 0.49417,3.12099 2.04309,3.54002 l 11.16335,2.98806 c 1.5345,0.42191 3.12389,-0.50572 3.54003,-2.0431 0.41902,-1.5316 -0.5057,-3.11232 -2.04021,-3.53714 z"
       id="path9187"
       style="fill:url(#linearGradient9812);fill-opacity:1;stroke-width:2.88981" /><rect
       style="fill:#faac00;fill-opacity:0.945098;stroke:none;stroke-width:2.68875;stroke-dasharray:none;stroke-opacity:1"
       id="rect3598"
       width="6.703259"
       height="18.594156"
       x="-22.847029"
       y="683.70007"
       ry="2.9746044"
       transform="matrix(0.15714482,-0.98757557,0.98111913,0.19340437,0,0)" /><path
       style="fill:url(#linearGradient1872);stroke-width:2.32759;stroke-opacity:0.992157"
       d="m 684.61713,140.29871 c -0.66763,2.18041 -1.26668,4.39584 -1.80075,6.64266 l 8.93122,2.53044 c 1.74864,0.49537 3.53288,-0.59404 4.00142,-2.44281 0.46855,-1.84875 -0.56186,-3.73516 -2.3105,-4.23052 z"
       id="path3582" /><path
       style="fill:url(#linearGradient1874);stroke-width:2.32759;stroke-opacity:0.992157"
       d="m 670.68983,136.42529 c -1.51951,-0.098 -2.93663,0.93905 -3.34662,2.55671 -0.46852,1.84878 0.56187,3.73517 2.31051,4.23055 l 6.56268,1.86003 c 0.53757,-2.24403 1.1312,-4.46217 1.79453,-6.64486 l -6.66627,-1.88851 c -0.21859,-0.0619 -0.43776,-0.1 -0.65483,-0.11392 z"
       id="path3578" /><g
       id="g3586"><path
         style="fill:url(#linearGradient1876);stroke-width:2.32759;stroke-opacity:0.992157"
         d="m 863.71789,139.4377 -7.93863,2.24782 c -1.74866,0.49537 -2.77905,2.38396 -2.3105,4.23272 0.46854,1.84877 2.25278,2.93817 4.00142,2.4428 l 8.15829,-2.31134 c -0.56409,-2.23718 -1.21146,-4.4366 -1.91058,-6.612 z"
         id="path3580" /><path
         style="fill:url(#linearGradient1878);stroke-width:2.32759;stroke-opacity:0.992157"
         d="m 878.52795,135.31452 c -0.21709,0.0141 -0.43624,0.0498 -0.65483,0.11172 l -7.61536,2.15799 c 0.69287,2.17826 1.33819,4.37892 1.90436,6.61418 l 7.40192,-2.09665 c 1.74863,-0.49537 2.77906,-2.38394 2.31051,-4.23271 -0.40998,-1.61768 -1.8271,-2.65258 -3.3466,-2.55454 z"
         id="path3576" /></g><path
       style="fill:url(#linearGradient1880);stroke-width:2.32759;stroke-opacity:0.992157"
       d="m 695.05899,116.84564 c -1.16748,1.93808 -2.28123,3.91681 -3.32797,5.94597 l 7.58012,4.62708 c 1.56778,0.95699 3.55838,0.39344 4.46353,-1.26411 0.90517,-1.65756 0.37213,-3.76212 -1.19566,-4.7191 z"
       id="path3574" /><path
       style="fill:url(#linearGradient1882);stroke-width:2.32759;stroke-opacity:0.992157"
       d="m 853.09576,116.33518 -6.72017,4.10346 c -1.5678,0.95699 -2.10083,3.06154 -1.19566,4.7191 0.90516,1.65755 2.89574,2.22111 4.46354,1.26412 l 6.84449,-4.17796 c -1.06683,-2.01516 -2.20443,-3.98094 -3.3922,-5.90872 z"
       id="path3572" /><path
       style="fill:url(#linearGradient1884);stroke-width:2.32759;stroke-opacity:0.992157"
       d="m 681.53784,108.90381 c -1.26378,-0.16741 -2.55378,0.46131 -3.23265,1.70448 -0.90516,1.65756 -0.37213,3.7621 1.19565,4.71909 l 6.34098,3.87124 c 1.05273,-2.0244 2.15787,-4.0104 3.3238,-5.95035 l -6.39691,-3.9041 c -0.39193,-0.23925 -0.80962,-0.38456 -1.23087,-0.44036 z"
       id="path3570" /><path
       style="fill:url(#linearGradient1904);stroke-width:2.32759;stroke-opacity:0.992157"
       d="m 867.41678,107.90697 c -0.42126,0.0558 -0.83895,0.19892 -1.23089,0.43817 l -7.25065,4.42771 c 1.18321,1.93113 2.30973,3.90312 3.37976,5.91531 l 7.13875,-4.35761 c 1.56778,-0.957 2.10083,-3.06154 1.19567,-4.7191 -0.67887,-1.24316 -1.96888,-1.8719 -3.23264,-1.70448 z"
       id="path3568" /><path
       style="fill:url(#linearGradient1906);stroke-width:2.32759;stroke-opacity:0.992157"
       d="m 710.67305,96.996528 c -1.5955,1.566497 -3.12742,3.206042 -4.62102,4.887792 l 5.96174,6.30308 c 1.28008,1.35338 3.34298,1.35338 4.62308,0 1.2801,-1.3534 1.2801,-3.53221 0,-4.8856 z"
       id="path3566" /><path
       style="fill:url(#linearGradient1908);stroke-width:2.32759;stroke-opacity:0.992157"
       d="m 837.47753,96.79497 -5.38358,5.69183 c -1.28009,1.35338 -1.28009,3.53221 1e-5,4.8856 1.28009,1.35339 3.34092,1.35339 4.62102,0 l 5.41052,-5.72031 c -1.50141,-1.67038 -3.04394,-3.299064 -4.64797,-4.85712 z"
       id="path3564" /><path
       style="fill:url(#linearGradient1910);stroke-width:2.32759;stroke-opacity:0.992157"
       d="m 698.15071,85.185647 c -0.83529,10e-7 -1.67047,0.337669 -2.31051,1.014364 -1.28011,1.353389 -1.28011,3.532209 0,4.885601 l 5.43125,5.742221 c 1.49887,-1.675598 3.04987,-3.292884 4.64382,-4.861501 l -5.45405,-5.76632 c -0.64004,-0.676695 -1.47521,-1.014365 -2.31051,-1.014365 z"
       id="path3562" /><path
       style="fill:url(#linearGradient1912);stroke-width:2.32759;stroke-opacity:0.992157"
       d="m 850.57802,84.370647 c -0.8353,0 -1.67045,0.337667 -2.31051,1.014364 l -6.03425,6.381952 c 1.60052,1.562633 3.13914,3.194389 4.6438,4.861499 l 6.01148,-6.355662 c 1.28009,-1.353389 1.28009,-3.534398 0,-4.887789 -0.64005,-0.676692 -1.47522,-1.014364 -2.31052,-1.014364 z"
       id="path3560" /><path
       style="fill:url(#linearGradient1914);stroke-width:2.32759;stroke-opacity:0.992157"
       d="m 730.51649,82.052726 c -1.92492,1.084866 -3.81165,2.237458 -5.65712,3.459354 l 4.13406,7.573775 c 0.90516,1.657559 2.89573,2.221112 4.46351,1.264119 1.56781,-0.95699 2.1029,-3.061536 1.19775,-4.719094 z"
       id="path3558" /><path
       style="fill:url(#linearGradient1916);stroke-width:2.32759;stroke-opacity:0.992157"
       d="m 817.73771,82.030826 -3.83565,7.023869 c -0.90519,1.657553 -0.37213,3.762104 1.19565,4.719094 1.56778,0.956987 3.56044,0.393436 4.46561,-1.264122 l 3.83772,-7.02606 c -1.84718,-1.217131 -3.73439,-2.370564 -5.66333,-3.452781 z"
       id="path3556" /><path
       style="fill:url(#linearGradient1918);stroke-width:2.32759;stroke-opacity:0.992157"
       d="m 795.06569,73.081197 -2.02246,7.979081 c -0.46855,1.848765 0.56187,3.735159 2.31052,4.230535 1.74863,0.495376 3.53288,-0.594037 4.00142,-2.442802 l 2.02662,-7.998798 c -2.07269,-0.672179 -4.18427,-1.246681 -6.3161,-1.768016 z"
       id="path3554" /><path
       style="fill:url(#linearGradient1920);stroke-width:2.32759;stroke-opacity:0.992157"
       d="m 753.29626,73.039567 c -2.13095,0.519072 -4.24033,1.100012 -6.3161,1.772397 l 2.11159,8.334002 c 0.46855,1.848763 2.25278,2.938172 4.00143,2.442799 1.74864,-0.495375 2.77906,-2.38177 2.31049,-4.230534 z"
       id="path3552" /><path
       style="fill:url(#linearGradient1922);stroke-width:2.32759;stroke-opacity:0.992157"
       d="m 773.58313,70.520086 c -0.8864,0.0054 -1.76525,0.05152 -2.6462,0.08326 v 8.43916 c 0,1.913978 1.45755,3.454974 3.26788,3.454975 1.81033,-4e-6 3.26787,-1.538807 3.26787,-3.452783 l -10e-6,-8.450116 c -1.30112,-0.04882 -2.59911,-0.08234 -3.88954,-0.07449 z"
       id="path3550" /><path
       style="fill:url(#linearGradient1924);stroke-width:2.32759;stroke-opacity:0.992157"
       d="m 719.98346,66.984054 c -0.42125,0.05581 -0.83892,0.198923 -1.23088,0.438169 -1.5678,0.956989 -2.10083,3.061539 -1.19567,4.719095 l 3.93719,7.210092 c 1.84918,-1.216464 3.72994,-2.379077 5.65298,-3.468117 l -3.93098,-7.196949 c -0.67886,-1.243168 -1.96886,-1.869698 -3.23264,-1.70229 z"
       id="path3548" /><path
       style="fill:url(#linearGradient1926);stroke-width:2.32759;stroke-opacity:0.992157"
       d="m 828.57119,66.407857 c -1.26376,-0.167407 -2.55375,0.461318 -3.23263,1.704483 l -4.23973,7.762189 c 1.92548,1.087407 3.81614,2.233131 5.6654,3.446207 l 4.2356,-7.755612 c 0.90516,-1.657557 0.37213,-3.762105 -1.19565,-4.719094 -0.39196,-0.239248 -0.81173,-0.382368 -1.23299,-0.438173 z"
       id="path3546" /><path
       style="fill:url(#linearGradient1928);stroke-width:2.32759;stroke-opacity:0.992157"
       d="m 746.13677,55.440455 c -0.21707,0.01401 -0.43623,0.052 -0.65481,0.113924 -1.74863,0.495378 -2.77904,2.381772 -2.3105,4.230536 l 2.06806,8.160923 c 2.07758,-0.667744 4.18536,-1.254065 6.314,-1.778972 L 749.4834,57.99718 c -0.41,-1.617671 -1.82711,-2.654761 -3.34663,-2.556725 z"
       id="path3544" /><path
       style="fill:url(#linearGradient1930);stroke-width:2.32759;stroke-opacity:0.992157"
       d="m 802.31015,55.142499 c -1.51952,-0.09804 -2.93665,0.939058 -3.34663,2.556725 l -2.15717,8.507078 c 2.13025,0.527123 4.24094,1.10874 6.3161,1.77678 l 2.15301,-8.496122 c 0.46856,-1.848764 -0.56187,-3.735161 -2.31051,-4.230537 -0.21857,-0.06192 -0.43774,-0.09992 -0.6548,-0.113924 z"
       id="path3542" /><path
       style="fill:url(#linearGradient3303);stroke-width:2.32759;stroke-opacity:0.992157"
       d="m 774.20481,51.404908 c -1.81033,0 -3.26788,1.540991 -3.26789,3.454972 v 8.623192 c 2.16494,-0.07306 4.34195,-0.08336 6.53575,-0.0067 l 10e-6,-8.616618 c 0,-1.913981 -1.45754,-3.454976 -3.26787,-3.454974 z"
       id="path3267" /><path
       id="rect1532"
       style="fill:none;fill-opacity:1;stroke:url(#linearGradient8212);stroke-width:8.23995;stroke-dasharray:none;stroke-opacity:0.992157"
       d="m 255.76617,168.94549 c -20.20939,-0.84456 -38.58246,11.18654 -45.27685,29.64837 -3.18924,-0.95252 -6.48043,-1.52316 -9.80365,-1.6998 -23.06107,-1.00661 -42.52473,16.76578 -43.47262,39.69512 -0.94847,22.92854 16.97668,42.33151 40.03699,43.33776 3.22165,0.0818 6.11186,0.091 9.04015,0.0988 h 9.09335 c -0.0333,0.28728 -0.0524,0.49304 -0.0951,0.82993 -0.42644,3.37957 -1.33999,9.36957 -4.54288,14.98467 -3.20286,5.6151 -8.69392,10.85597 -13.18612,14.26677 -4.49219,3.41081 -7.98674,4.99157 -10.23287,5.94828 -2.24612,0.95672 -3.24448,1.29021 -0.79006,1.45668 2.45442,0.16649 8.36164,0.16624 14.1851,-0.0417 5.82345,-0.20803 11.56377,-0.62392 17.38714,-1.7055 5.82338,-1.08158 11.72968,-2.82924 16.38817,-5.24178 4.6585,-2.41253 8.06934,-5.49059 10.93937,-9.27569 2.87001,-3.78506 5.19869,-8.27694 7.02894,-12.14534 1.78464,-3.77207 3.08084,-6.91482 4.03198,-9.07626 H 391.475 c 17.69791,0 31.94639,-14.24848 31.94639,-31.94641 0,-14.34512 -9.36312,-26.41864 -22.33455,-30.48019 -1.54513,-19.84947 -18.19146,-35.47542 -38.72844,-36.35443 -17.05273,-0.68104 -32.68917,9.05423 -39.10636,24.34771 -3.95162,-1.90485 -8.26963,-2.98727 -12.67523,-3.17737 -3.99352,-0.1457 -7.97717,0.44463 -11.73893,1.73966 -4.42955,-19.84103 -22.13639,-34.31553 -43.07189,-35.20922 z"
       sodipodi:nodetypes="ccccccccssssssssscssccccccc" /><path
       id="path5221"
       style="fill:none;fill-opacity:1;stroke:url(#linearGradient10096);stroke-width:8.23995;stroke-dasharray:none;stroke-opacity:0.992157"
       d="m 255.76617,168.94549 c -20.20939,-0.84456 -38.58246,11.18654 -45.27685,29.64837 -3.18924,-0.95252 -6.48043,-1.52316 -9.80365,-1.6998 -23.06107,-1.00661 -42.52473,16.76578 -43.47262,39.69512 -0.94847,22.92854 16.97668,42.33151 40.03699,43.33776 3.22165,0.0818 6.11186,0.091 9.04015,0.0988 h 9.09335 c -0.0333,0.28728 -0.0524,0.49304 -0.0951,0.82993 -0.42644,3.37957 -1.33999,9.36957 -4.54288,14.98467 -3.20286,5.6151 -8.69392,10.85597 -13.18612,14.26677 -4.49219,3.41081 -7.98674,4.99157 -10.23287,5.94828 -2.24612,0.95672 -3.24448,1.29021 -0.79006,1.45668 2.45442,0.16649 8.36164,0.16624 14.1851,-0.0417 5.82345,-0.20803 11.56377,-0.62392 17.38714,-1.7055 5.82338,-1.08158 11.72968,-2.82924 16.38817,-5.24178 4.6585,-2.41253 8.06934,-5.49059 10.93937,-9.27569 2.87001,-3.78506 5.19869,-8.27694 7.02894,-12.14534 1.78464,-3.77207 3.08084,-6.91482 4.03198,-9.07626 H 391.475 c 17.69791,0 31.94639,-14.24848 31.94639,-31.94641 0,-14.34512 -9.36312,-26.41864 -22.33455,-30.48019 -1.54513,-19.84947 -18.19146,-35.47542 -38.72844,-36.35443 -17.05273,-0.68104 -32.68917,9.05423 -39.10636,24.34771 -3.95162,-1.90485 -8.26963,-2.98727 -12.67523,-3.17737 -3.99352,-0.1457 -7.97717,0.44463 -11.73893,1.73966 -4.42955,-19.84103 -22.13639,-34.31553 -43.07189,-35.20922 z"
       sodipodi:nodetypes="ccccccccssssssssscssccccccc" /><path
       id="path3261"
       style="fill:url(#linearGradient3309);fill-opacity:1;stroke:none;stroke-width:9.37607;stroke-dasharray:none;stroke-opacity:1"
       d="m 777.66321,84.423179 a 74.756699,72.373772 2.4331138 0 0 -77.40039,66.046871 47.321445,45.813038 2.4331138 0 1 22.67578,-4.80859 47.321445,45.813038 2.4331138 0 1 44.29492,36.20898 32.434147,31.400282 2.4331138 0 1 12.07227,-1.78906 32.434147,31.400282 2.4331138 0 1 13.03516,3.26758 41.674538,40.34613 2.4331138 0 1 40.21679,-25.03907 41.674538,40.34613 2.4331138 0 1 16.40626,4.30469 74.756699,72.373772 2.4331138 0 0 0.31641,-2.70898 74.756699,72.373772 2.4331138 0 0 -71.6172,-75.482421 z" /><g
       id="g3592"
       transform="rotate(8.0505069,712.43573,182.62436)"><path
         style="fill:url(#linearGradient3594);stroke-width:2.32759;stroke-opacity:0.992157"
         d="m 863.71789,139.4377 -7.93863,2.24782 c -1.74866,0.49537 -2.77905,2.38396 -2.3105,4.23272 0.46854,1.84877 2.25278,2.93817 4.00142,2.4428 l 8.15829,-2.31134 c -0.56409,-2.23718 -1.21146,-4.4366 -1.91058,-6.612 z"
         id="path3588" /><path
         style="fill:url(#linearGradient3596);stroke-width:2.32759;stroke-opacity:0.992157"
         d="m 878.52795,135.31452 c -0.21709,0.0141 -0.43624,0.0498 -0.65483,0.11172 l -7.61536,2.15799 c 0.69287,2.17826 1.33819,4.37892 1.90436,6.61418 l 7.40192,-2.09665 c 1.74863,-0.49537 2.77906,-2.38394 2.31051,-4.23271 -0.40998,-1.61768 -1.8271,-2.65258 -3.3466,-2.55454 z"
         id="path3590" /></g><path
       id="path3263"
       style="fill:none;fill-opacity:1;stroke:url(#linearGradient3307);stroke-width:8.47393;stroke-dasharray:none;stroke-opacity:0.992157"
       d="m 722.93903,145.66146 c -20.78325,-0.86854 -39.67802,11.5042 -46.5625,30.49024 -3.27981,-0.97956 -6.66446,-1.5664 -10.08203,-1.74805 -23.71589,-1.0352 -43.73223,17.24184 -44.70703,40.82226 -0.97541,23.57961 17.45872,43.53352 41.17383,44.56836 3.31315,0.0841 6.28542,0.0936 9.29687,0.10157 h 9.35156 c -0.0343,0.29545 -0.0539,0.50705 -0.0977,0.85351 -0.43857,3.47553 -1.37805,9.63561 -4.67188,15.41016 -3.29381,5.77453 -8.94079,11.16423 -13.56054,14.67187 -4.61975,3.50766 -8.21353,5.13331 -10.52344,6.11719 -2.30991,0.98388 -3.33662,1.32684 -0.8125,1.49805 2.52411,0.17121 8.59908,0.17094 14.58789,-0.043 5.98881,-0.21393 11.89213,-0.64162 17.88086,-1.75391 5.98872,-1.11229 12.06274,-2.90959 16.85351,-5.39062 4.79078,-2.48104 8.29848,-5.64651 11.25,-9.53907 2.95152,-3.89254 5.34631,-8.51198 7.22852,-12.49023 1.83533,-3.87918 3.16832,-7.11117 4.14648,-9.33398 h 138.81055 c 18.20045,0 32.85352,-14.65306 32.85352,-32.85352 0,-14.75246 -9.62899,-27.16882 -22.96875,-31.3457 -1.589,-20.4131 -18.70801,-36.48274 -39.82813,-37.38672 -17.53695,-0.70038 -33.61739,9.31134 -40.2168,25.03906 -4.06384,-1.95893 -8.50446,-3.07208 -13.03515,-3.26758 -4.10691,-0.14988 -8.20369,0.45725 -12.07227,1.78906 -4.55532,-20.40443 -22.76496,-35.28994 -44.29492,-36.20898 z"
       sodipodi:nodetypes="ccccccccssssssssscssccccccc" /><path
       id="path3265"
       style="fill:url(#linearGradient3305);fill-opacity:1;stroke:none;stroke-width:8.38;stroke-dasharray:none;stroke-opacity:1"
       d="m 719.54993,153.55623 c -0.93789,0.03 -2.20774,0.27185 -3.35742,0.69531 -1.14967,0.42346 -2.17703,1.0285 -2.8125,1.54297 -0.63546,0.51448 -0.87817,0.93681 -0.42383,1.63281 0.45435,0.69599 1.60346,1.66463 2.29883,2.51172 0.69541,0.8471 0.93831,1.57341 0.72656,2.11719 -0.21175,0.54377 -0.87843,0.9065 -1.45312,1.20898 -0.57469,0.30248 -1.05755,0.54448 -1.66211,0.48438 -0.60457,-0.0601 -1.33202,-0.42304 -2.51172,-0.81641 -1.17969,-0.39337 -2.81187,-0.81825 -4.5664,-0.93945 -1.75455,-0.12119 -3.63024,0.061 -5.44532,0.48437 -1.81508,0.42342 -3.5685,1.0886 -5.17187,1.9961 -1.60337,0.9075 -3.05673,2.05677 -4.47852,3.53906 -1.42179,1.48229 -2.81321,3.29806 -3.7207,5.05273 -0.90748,1.75469 -1.32932,3.44842 -1.41992,5.08204 -0.0906,1.63362 0.14957,3.20612 0.36133,4.47656 0.21176,1.27045 0.39473,2.23838 0.69726,3.53906 0.30253,1.30069 0.72491,2.93505 0.8457,4.50781 0.12079,1.57275 -0.0607,3.08515 -0.18164,4.53711 -0.12097,1.45195 -0.18075,2.84295 -0.39257,3.93164 -0.21182,1.08869 -0.57471,1.8738 -0.99805,2.47852 -0.42333,0.60471 -0.90837,1.02847 -1.15039,1.24023 -0.24202,0.2118 -0.24211,0.2121 -0.38281,0.2793 -0.1407,0.0672 -0.42264,0.20139 -0.71289,0.18359 -0.29026,-0.0178 -0.58867,-0.18788 -0.82422,-0.43359 -0.23555,-0.24572 -0.40696,-0.56777 -0.43946,-0.93164 -0.0325,-0.36386 0.0739,-0.76909 0.29883,-1.37695 0.22493,-0.60785 0.56856,-1.41775 0.67969,-2.69922 0.11112,-1.28148 -0.009,-3.0347 -0.3418,-4.72852 -0.33256,-1.69384 -0.87707,-3.32726 -1.81445,-4.7793 -0.93739,-1.45203 -2.75878,-3.73232 -3.11719,-2.93554 -0.65507,1.45631 -1.47115,8.35083 -1.38281,7.40625 0.33883,-3.62292 -2.72974,-5.6827 -3.66797,-4.10938 -0.86612,1.45242 -1.46093,4.07554 -2.33008,5.26563 -2.51764,-6.30863 -5.07839,-11.75795 -7.7832,-11.57813 -8.2683,0.32118 -16.37471,3.71048 -22.39844,9.37696 -1.61988,1.37598 -2.71758,3.05483 -3.92969,4.39257 -4.68186,6.15501 -7.24441,13.89688 -7,21.63868 0.18593,7.27151 2.68115,14.48351 7.14649,20.23828 0.23043,0.3058 0.73515,0.93068 1.08594,1.3457 3.92511,4.61066 9.05502,8.18301 14.73828,10.27148 0.34227,0.1287 1.11056,0.38964 1.62109,0.55079 4.56973,1.46262 9.42013,1.77493 14.18555,1.46679 3.0294,0.20425 6.06291,0.23349 9.09765,0.19532 4.27981,-0.006 8.56005,-8.2e-4 12.83985,0.002 -0.82494,8.08894 -1.36305,16.4124 -4.62891,23.9707 -2.18364,5.17368 -5.51635,9.79736 -9.38476,13.8418 1.66874,-0.17396 3.52737,-0.44174 5.05859,-0.6875 1.46959,-0.24635 3.15744,-0.58515 4.46875,-0.87891 5.67039,-1.36541 11.45526,-3.16992 16.0293,-6.9375 3.31875,-2.71894 5.66855,-6.39614 7.77343,-10.08398 3.31486,-6.11401 5.88619,-12.59132 8.69727,-18.94336 0.18478,-0.59381 1.04962,-0.14951 1.53516,-0.28516 47.98937,-0.005 95.97967,0.0233 143.96875,-0.0351 8.71436,-0.3736 17.0309,-5.73946 20.8789,-13.58204 3.9068,-7.68027 3.49501,-17.41385 -1.2539,-24.63671 -3.15635,-5.00373 -8.1812,-8.74615 -13.8379,-10.44922 -1.52734,-0.50326 -3.06635,-0.97863 -4.61523,-1.47657 -0.54966,-5.30019 -0.8928,-10.77603 -3.19922,-15.67187 -4.08578,-9.31053 -12.77318,-16.32789 -22.61719,-18.71875 -2.57824,-0.31803 -5.11394,-0.42416 -7.50976,-0.0215 -3.07248,0.42021 -4.64426,1.65075 -6.49024,3.01954 -0.32047,0.53519 0.36445,0.96255 0.47071,1.73242 0.10626,0.76988 -0.36295,1.88086 -1.00391,2.30859 -0.64095,0.42773 -1.45381,0.17188 -2.07422,-0.1914 -0.6204,-0.36327 -1.04924,-0.83482 -1.58398,-1.45508 -0.53474,-0.62025 -1.17689,-1.38978 -1.51953,-2.07422 -0.34259,-0.68445 -0.38423,-1.28237 -0.29883,-2.00977 0.0854,-0.7274 0.29899,-1.58339 0.36328,-1.96875 0.0643,-0.3854 -0.0223,-0.2996 -0.57812,-0.0644 -0.55585,0.2352 -1.5811,0.61977 -2.33008,1.26172 -0.74899,0.64195 -1.21899,1.54039 -1.1543,2.35351 0.0647,0.81314 0.66195,1.53993 1.49609,2.60938 0.83414,1.06946 1.90396,2.48174 2.16016,3.5293 0.25619,1.04755 -0.30023,1.73219 -0.91992,1.77539 -0.6197,0.0432 -1.30277,-0.55516 -2.20117,-1.51758 -0.89841,-0.96242 -2.01173,-2.28983 -2.88868,-3.33789 -0.87694,-1.04805 -1.51918,-1.8168 -1.99023,-2.00977 -0.47106,-0.19298 -0.76873,0.19092 -1.45313,0.93946 -0.68438,0.74854 -1.7546,1.86022 -2.80273,3.40039 -1.04814,1.54015 -2.07384,3.50829 -2.86523,5.39062 -0.79139,1.88234 -1.349,3.67845 -1.62696,5.625 -0.27796,1.94657 -0.27734,4.04405 -0.27734,6.0332 0,1.98916 -3.7e-4,3.8713 -0.0859,5.19727 -0.0856,1.32598 -0.2564,2.09455 -0.72656,2.60742 -0.47017,0.51288 -1.24033,0.76974 -2.50195,0.4707 -1.26164,-0.29904 -3.01451,-1.1534 -4.51172,-1.83789 -1.49722,-0.68448 -2.73759,-1.19925 -3.95703,-1.28515 -1.21943,-0.0859 -2.41875,0.25759 -3.48828,0.64258 -1.06955,0.38499 -2.00913,0.81207 -2.67188,0.85546 -0.66275,0.0434 -1.04945,-0.29914 -1.4668,-0.99414 -0.41735,-0.69499 -0.86583,-1.74286 -1.60351,-2.79101 -0.73767,-1.04815 -1.76492,-2.09518 -2.89844,-2.72656 -1.13353,-0.63138 -2.37293,-0.84661 -3.27148,-0.87891 -0.89857,-0.0323 -1.45502,0.11853 -1.74415,0.32227 -0.28911,0.20374 -0.3104,0.46055 -0.2246,0.8457 0.0858,0.38515 0.27872,0.89894 0.88867,1.36914 0.60996,0.4702 1.63677,0.89611 2.20312,1.32422 0.56638,0.42812 0.67191,0.85661 0.62891,1.23047 -0.043,0.37387 -0.2355,0.69564 -0.44922,0.9414 -0.2137,0.24576 -0.44808,0.41599 -0.73633,0.45899 -0.28825,0.043 -0.63115,-0.0418 -1.14453,-0.37305 -0.51338,-0.33121 -1.19694,-0.9092 -1.82812,-1.75391 -0.6312,-0.8447 -1.20892,-1.95663 -1.57227,-2.5664 -0.36335,-0.60981 -0.51257,-0.71808 -1.17578,-0.67578 -0.6632,0.0423 -1.83979,0.23544 -2.57813,0.49218 -0.73832,0.25675 -1.03917,0.57838 -0.72851,1.17774 0.31067,0.59935 1.23191,1.47624 1.64844,2.26758 0.41647,0.79133 0.32935,1.49646 0.041,1.90234 -0.28832,0.40589 -0.77865,0.5131 -1.23828,0.4707 -0.45963,-0.0424 -0.88792,-0.23582 -1.41211,-0.71679 -0.52419,-0.48097 -1.14495,-1.25087 -1.51953,-1.8711 -0.37459,-0.62024 -0.50316,-1.09074 -0.67383,-1.36914 -0.17067,-0.27841 -0.38335,-0.36382 -0.7793,-0.33203 -0.39596,0.0317 -0.97334,0.18271 -1.59375,0.41797 -0.62041,0.23527 -1.28389,0.55519 -1.57226,0.72656 -0.28839,0.17137 -0.20241,0.1935 -0.0742,0.32227 0.12817,0.12876 0.29891,0.36372 0.54492,0.67383 0.24601,0.31011 0.56659,0.69391 0.72656,1.02539 0.16,0.33149 0.15974,0.61087 0.0742,0.82422 -0.0855,0.21336 -0.25569,0.36301 -0.4375,0.52343 -0.18181,0.16042 -0.3755,0.33042 -0.59961,0.41602 -0.22411,0.0856 -0.48098,0.0873 -0.79101,0.002 -0.31004,-0.0853 -0.67377,-0.25629 -0.94141,-0.50195 -0.26765,-0.24565 -0.43744,-0.56668 -0.61914,-0.85547 -0.1817,-0.28878 -0.37561,-0.54619 -0.61133,-0.52539 -0.23571,0.0208 -0.51253,0.32114 -0.9082,0.7168 -0.39566,0.39567 -0.90893,0.88658 -1.30469,1.31445 -0.39577,0.42786 -0.67354,0.79213 -0.95117,1.00586 -0.27763,0.21374 -0.55626,0.27789 -0.85547,0.24609 -0.29921,-0.0318 -0.62055,-0.15969 -0.82422,-0.41601 -0.20367,-0.25633 -0.28961,-0.64124 -0.25781,-1.0586 0.0318,-0.41737 0.18217,-0.86827 0.53516,-1.39257 0.353,-0.5243 0.91016,-1.12152 1.33789,-1.63477 0.42772,-0.51325 0.72578,-0.94237 0.98242,-1.54102 0.25664,-0.59865 0.47151,-1.36782 0.66406,-2.57617 0.19255,-1.20835 0.36362,-2.85571 0.44922,-4.42773 0.0856,-1.57202 0.0847,-3.06839 0.0312,-4.59766 -0.0534,-1.52926 -0.15985,-3.09209 -0.29883,-4.46094 -0.13899,-1.36885 -0.30977,-2.54386 -0.52343,-3.38867 -0.21367,-0.84482 -0.47068,-1.35834 -0.71485,-1.73437 -0.24417,-0.37603 -0.47527,-0.6146 -0.71289,-0.49219 -0.23762,0.12241 -0.48044,0.60622 -1.23633,1.15039 -0.75588,0.54416 -2.0255,1.14869 -3.08398,1.51172 -1.05849,0.36302 -1.90619,0.48396 -2.78321,0.36328 -0.877,-0.12069 -1.7839,-0.4838 -2.63085,-0.87695 -0.84696,-0.39315 -1.634,-0.81519 -2.20899,-1.35938 -0.57499,-0.54419 -0.93729,-1.20978 -1.17969,-1.30078 -0.2424,-0.091 -0.36347,0.39232 -0.60547,1.20898 -0.24198,0.81666 -0.60621,1.96502 -1.27148,2.90235 -0.66528,0.93733 -1.63258,1.66376 -2.63086,2.54101 -0.99827,0.87725 -2.02709,1.90605 -3.66016,2.72266 -1.63305,0.81662 -3.87015,1.42093 -6.01757,1.63281 -2.14744,0.21188 -4.20469,0.0315 -6.01953,-0.48242 -1.81485,-0.51393 -3.38748,-1.36155 -4.59766,-2.48047 -1.21016,-1.11892 -2.05713,-2.50978 -2.72266,-3.68945 -0.66552,-1.17968 -1.1503,-2.14704 -1.39258,-2.93359 -0.24224,-0.78655 -0.24144,-1.39327 -0.0293,-1.72657 0.21216,-0.33329 0.6349,-0.39293 0.99805,-0.33203 0.36313,0.0609 0.6657,0.24151 0.99804,0.87696 0.33234,0.63545 0.69562,1.72561 1.48242,2.7539 0.78681,1.02827 1.99722,1.996 3.38868,2.9336 1.39146,0.93759 2.96351,1.84541 4.74804,2.23828 1.78453,0.39286 3.78008,0.27115 5.50391,-0.21289 1.72385,-0.48403 3.17692,-1.32992 4.38672,-2.20704 1.2098,-0.87712 2.17749,-1.78451 2.93359,-2.99414 0.75609,-1.20963 1.30069,-2.72335 1.42188,-4.38671 0.1212,-1.66337 -0.18137,-3.47683 -0.69532,-4.95899 -0.51395,-1.48215 -1.23915,-2.63153 -2.08593,-3.59961 -0.84677,-0.96809 -1.81545,-1.75599 -2.96485,-2.30078 -1.14939,-0.54478 -2.47955,-0.84586 -3.75,-1.08789 -1.27045,-0.24204 -2.48027,-0.42409 -3.35742,-0.60547 -0.87717,-0.18137 -1.42323,-0.36353 -1.87695,-0.54492 -0.45373,-0.18139 -0.8152,-0.36298 -1.08789,-0.81641 -0.27274,-0.45343 -0.45492,-1.17848 -0.33399,-1.69336 0.12094,-0.51488 0.54506,-0.8173 0.72657,-1.11914 0.1815,-0.30184 0.11935,-0.60527 -0.2129,-0.84765 -0.33225,-0.24239 -0.9371,-0.42258 -1.875,-0.39258 z m -64.64062,42.53711 c 7.55484,0 13.7207,5.99643 13.7207,13.39843 0,7.40202 -6.16586,13.4004 -13.7207,13.4004 -7.55484,0 -13.71875,-5.99838 -13.71875,-13.4004 0,-7.402 6.16391,-13.39843 13.71875,-13.39843 z m 0,1.76758 c -6.62319,0 -11.95117,5.20882 -11.95117,11.63085 0,6.42205 5.32798,11.63086 11.95117,11.63086 6.62318,0 11.95312,-5.20881 11.95312,-11.63086 0,-6.42203 -5.32994,-11.63085 -11.95312,-11.63085 z" /><path
       id="path3271"
       style="fill:url(#linearGradient3299);fill-opacity:1;stroke:none;stroke-width:9.37607;stroke-dasharray:none;stroke-opacity:1"
       d="m 777.66321,84.423179 a 74.756699,72.373772 2.4331138 0 0 -77.40039,66.046871 47.321445,45.813038 2.4331138 0 1 22.67578,-4.80859 47.321445,45.813038 2.4331138 0 1 44.29492,36.20898 32.434147,31.400282 2.4331138 0 1 12.07227,-1.78906 32.434147,31.400282 2.4331138 0 1 13.03516,3.26758 41.674538,40.34613 2.4331138 0 1 40.21679,-25.03907 41.674538,40.34613 2.4331138 0 1 16.40626,4.30469 74.756699,72.373772 2.4331138 0 0 0.31641,-2.70898 74.756699,72.373772 2.4331138 0 0 -71.6172,-75.482421 z" /><path
       id="path3269"
       style="fill:none;fill-opacity:1;stroke:url(#linearGradient3301);stroke-width:8.47393;stroke-dasharray:none;stroke-opacity:0.992157"
       d="m 722.93903,145.66146 c -20.78325,-0.86854 -39.67802,11.5042 -46.5625,30.49024 -3.27981,-0.97956 -6.66446,-1.5664 -10.08203,-1.74805 -23.71589,-1.0352 -43.73223,17.24184 -44.70703,40.82226 -0.97541,23.57961 17.45872,43.53352 41.17383,44.56836 3.31315,0.0841 6.28542,0.0936 9.29687,0.10157 h 9.35156 c -0.0343,0.29545 -0.0539,0.50705 -0.0977,0.85351 -0.43857,3.47553 -1.37805,9.63561 -4.67188,15.41016 -3.29381,5.77453 -8.94079,11.16423 -13.56054,14.67187 -4.61975,3.50766 -8.21353,5.13331 -10.52344,6.11719 -2.30991,0.98388 -3.33662,1.32684 -0.8125,1.49805 2.52411,0.17121 8.59908,0.17094 14.58789,-0.043 5.98881,-0.21393 11.89213,-0.64162 17.88086,-1.75391 5.98872,-1.11229 12.06274,-2.90959 16.85351,-5.39062 4.79078,-2.48104 8.29848,-5.64651 11.25,-9.53907 2.95152,-3.89254 5.34631,-8.51198 7.22852,-12.49023 1.83533,-3.87918 3.16832,-7.11117 4.14648,-9.33398 h 138.81055 c 18.20045,0 32.85352,-14.65306 32.85352,-32.85352 0,-14.75246 -9.62899,-27.16882 -22.96875,-31.3457 -1.589,-20.4131 -18.70801,-36.48274 -39.82813,-37.38672 -17.53695,-0.70038 -33.61739,9.31134 -40.2168,25.03906 -4.06384,-1.95893 -8.50446,-3.07208 -13.03515,-3.26758 -4.10691,-0.14988 -8.20369,0.45725 -12.07227,1.78906 -4.55532,-20.40443 -22.76496,-35.28994 -44.29492,-36.20898 z"
       sodipodi:nodetypes="ccccccccssssssssscssccccccc" /><path
       id="path3273"
       style="fill:none;fill-opacity:1;stroke:url(#linearGradient3297);stroke-width:8.47393;stroke-dasharray:none;stroke-opacity:0.992157"
       d="m 722.93903,145.66146 c -20.78325,-0.86854 -39.67802,11.5042 -46.5625,30.49024 -3.27981,-0.97956 -6.66446,-1.5664 -10.08203,-1.74805 -23.71589,-1.0352 -43.73223,17.24184 -44.70703,40.82226 -0.97541,23.57961 17.45872,43.53352 41.17383,44.56836 3.31315,0.0841 6.28542,0.0936 9.29687,0.10157 h 9.35156 c -0.0343,0.29545 -0.0539,0.50705 -0.0977,0.85351 -0.43857,3.47553 -1.37805,9.63561 -4.67188,15.41016 -3.29381,5.77453 -8.94079,11.16423 -13.56054,14.67187 -4.61975,3.50766 -8.21353,5.13331 -10.52344,6.11719 -2.30991,0.98388 -3.33662,1.32684 -0.8125,1.49805 2.52411,0.17121 8.59908,0.17094 14.58789,-0.043 5.98881,-0.21393 11.89213,-0.64162 17.88086,-1.75391 5.98872,-1.11229 12.06274,-2.90959 16.85351,-5.39062 4.79078,-2.48104 8.29848,-5.64651 11.25,-9.53907 2.95152,-3.89254 5.34631,-8.51198 7.22852,-12.49023 1.83533,-3.87918 3.16832,-7.11117 4.14648,-9.33398 h 138.81055 c 18.20045,0 32.85352,-14.65306 32.85352,-32.85352 0,-14.75246 -9.62899,-27.16882 -22.96875,-31.3457 -1.589,-20.4131 -18.70801,-36.48274 -39.82813,-37.38672 -17.53695,-0.70038 -33.61739,9.31134 -40.2168,25.03906 -4.06384,-1.95893 -8.50446,-3.07208 -13.03515,-3.26758 -4.10691,-0.14988 -8.20369,0.45725 -12.07227,1.78906 -4.55532,-20.40443 -22.76496,-35.28994 -44.29492,-36.20898 z"
       sodipodi:nodetypes="ccccccccssssssssscssccccccc" /><rect
       style="fill:#fbac00;fill-opacity:0.945098;stroke:none;stroke-width:2.68787;stroke-dasharray:none;stroke-opacity:1"
       id="rect3275"
       width="6.383347"
       height="19.513086"
       x="786.22589"
       y="17.29414"
       ry="3.1216102"
       transform="matrix(0.99863066,0.05231457,-0.04681459,0.9989036,0,0)" /><rect
       style="fill:#faac00;fill-opacity:0.945098;stroke:none;stroke-width:2.68876;stroke-dasharray:none;stroke-opacity:1"
       id="rect3277"
       width="6.4288917"
       height="19.387617"
       x="785.75366"
       y="-240.1956"
       ry="3.1015384"
       transform="matrix(0.92915072,0.36970116,-0.33535021,0.94209354,0,0)" /><rect
       style="fill:#faac00;fill-opacity:0.945098;stroke:none;stroke-width:2.68876;stroke-dasharray:none;stroke-opacity:1"
       id="rect3279"
       width="6.4288917"
       height="19.387617"
       x="785.75366"
       y="-240.1956"
       ry="3.1015384"
       transform="matrix(0.92915072,0.36970116,-0.33535021,0.94209354,0,0)" /><rect
       style="fill:#faac00;fill-opacity:0.945098;stroke:none;stroke-width:2.68961;stroke-dasharray:none;stroke-opacity:1"
       id="rect3281"
       width="6.4965405"
       height="19.198072"
       x="750.08142"
       y="-418.09039"
       ry="3.0712161"
       transform="matrix(0.8182591,0.57484958,-0.53212644,0.8466649,0,0)" /><rect
       style="fill:#faac00;fill-opacity:0.945098;stroke:none;stroke-width:2.68967;stroke-dasharray:none;stroke-opacity:1"
       id="rect3283"
       width="6.6320601"
       height="18.806496"
       x="584.58942"
       y="-665.76746"
       ry="3.0085738"
       transform="matrix(0.54685656,0.83722632,-0.80764316,0.58967154,0,0)" /><rect
       style="fill:#faac00;fill-opacity:0.945098;stroke:none;stroke-width:2.68891;stroke-dasharray:none;stroke-opacity:1"
       id="rect3285"
       width="6.6942658"
       height="18.621235"
       x="465.75656"
       y="-764.6413"
       ry="2.9789364"
       transform="matrix(0.3694233,0.92926122,-0.91383615,0.4060831,0,0)" /><rect
       style="fill:#faac00;fill-opacity:0.945098;stroke:none;stroke-width:2.68875;stroke-dasharray:none;stroke-opacity:1"
       id="rect3287"
       width="6.703259"
       height="18.594156"
       x="129.65073"
       y="679.59155"
       ry="2.9746044"
       transform="matrix(0.33666316,-0.94162515,0.92858936,0.37110889,0,0)" /><rect
       style="fill:#faac00;fill-opacity:0.945098;stroke:none;stroke-width:2.68987;stroke-dasharray:none;stroke-opacity:1"
       id="rect3289"
       width="6.5979013"
       height="18.906727"
       x="383.08389"
       y="601.50934"
       ry="3.0246077"
       transform="matrix(0.62473171,-0.78083948,0.74539649,0.66662138,0,0)" /><rect
       style="fill:#faac00;fill-opacity:0.945098;stroke:none;stroke-width:2.68977;stroke-dasharray:none;stroke-opacity:1"
       id="rect3291"
       width="6.5189633"
       height="19.134388"
       x="526.57996"
       y="509.7814"
       ry="3.0610282"
       transform="matrix(0.77887473,-0.62717952,0.58451,0.8113865,0,0)" /><rect
       style="fill:#faac00;fill-opacity:0.945098;stroke:none;stroke-width:2.68913;stroke-dasharray:none;stroke-opacity:1"
       id="rect3293"
       width="6.4544287"
       height="19.316515"
       x="635.3963"
       y="396.35986"
       ry="3.0901639"
       transform="matrix(0.88851365,-0.45885018,0.41940731,0.90779816,0,0)" /><rect
       style="fill:#faac00;fill-opacity:0.945098;stroke:none;stroke-width:2.68806;stroke-dasharray:none;stroke-opacity:1"
       id="rect3295"
       width="6.3925552"
       height="19.487852"
       x="739.5672"
       y="190.38474"
       ry="3.117574"
       transform="matrix(0.98486008,-0.17335117,0.15555121,0.98782783,0,0)" /><rect
       style="fill:#faac00;fill-opacity:0.945098;stroke:none;stroke-width:2.68891;stroke-dasharray:none;stroke-opacity:1"
       id="rect3537"
       width="6.6942658"
       height="18.621235"
       x="317.43668"
       y="-846.62256"
       ry="2.9789364"
       transform="matrix(0.15760408,0.98750238,-0.98045422,0.19674737,0,0)" /><path
       id="path9861"
       style="fill:url(#linearGradient9764);fill-opacity:1;stroke-width:2.88981"
       d="m 306.8485,105.73487 c -28.72758,0 -52.0152,23.28951 -52.0152,52.0171 0,3.85312 0.43014,7.6042 1.225,11.21856 20.80651,1.01645 38.37071,15.43682 42.7794,35.18451 3.76175,-1.29502 7.74542,-1.88539 11.73894,-1.73965 4.40557,0.19011 8.72361,1.27252 12.67522,3.17735 5.20435,-12.40296 16.47318,-21.14674 29.64269,-23.6469 3.80626,-7.22882 5.97105,-15.45674 5.97105,-24.19387 0,-28.72759 -23.28949,-52.0171 -52.0171,-52.0171 z m 0,17.33967 c 19.15078,0 34.67935,15.52667 34.67935,34.67743 0,1.59806 -1.29252,2.89057 -2.89058,2.89057 -1.59806,0 -2.89057,-1.29251 -2.89057,-2.89057 0,-15.96042 -12.94065,-28.89819 -28.8982,-28.89819 -1.59806,0 -2.88867,-1.29249 -2.88867,-2.89056 0,-1.59808 1.29061,-2.88868 2.88867,-2.88868 z" /><path
       id="path5095"
       style="fill:none;fill-opacity:1;stroke:url(#linearGradient10098);stroke-width:8.23995;stroke-dasharray:none;stroke-opacity:0.992157"
       d="m 255.76617,168.94549 c -20.20939,-0.84456 -38.58246,11.18654 -45.27685,29.64837 -3.18924,-0.95252 -6.48043,-1.52316 -9.80365,-1.6998 -23.06107,-1.00661 -42.52473,16.76578 -43.47262,39.69512 -0.94847,22.92854 16.97668,42.33151 40.03699,43.33776 3.22165,0.0818 6.11186,0.091 9.04015,0.0988 h 9.09335 c -0.0333,0.28728 -0.0524,0.49304 -0.0951,0.82993 -0.42644,3.37957 -1.33999,9.36957 -4.54288,14.98467 -3.20286,5.6151 -8.69392,10.85597 -13.18612,14.26677 -4.49219,3.41081 -7.98674,4.99157 -10.23287,5.94828 -2.24612,0.95672 -3.24448,1.29021 -0.79006,1.45668 2.45442,0.16649 8.36164,0.16624 14.1851,-0.0417 5.82345,-0.20803 11.56377,-0.62392 17.38714,-1.7055 5.82338,-1.08158 11.72968,-2.82924 16.38817,-5.24178 4.6585,-2.41253 8.06934,-5.49059 10.93937,-9.27569 2.87001,-3.78506 5.19869,-8.27694 7.02894,-12.14534 1.78464,-3.77207 3.08084,-6.91482 4.03198,-9.07626 H 391.475 c 17.69791,0 31.94639,-14.24848 31.94639,-31.94641 0,-14.34512 -9.36312,-26.41864 -22.33455,-30.48019 -1.54513,-19.84947 -18.19146,-35.47542 -38.72844,-36.35443 -17.05273,-0.68104 -32.68917,9.05423 -39.10636,24.34771 -3.95162,-1.90485 -8.26963,-2.98727 -12.67523,-3.17737 -3.99352,-0.1457 -7.97717,0.44463 -11.73893,1.73966 -4.42955,-19.84103 -22.13639,-34.31553 -43.07189,-35.20922 z"
       sodipodi:nodetypes="ccccccccssssssssscssccccccc" /><path
       id="path5097"
       style="fill:none;fill-opacity:1;stroke:url(#linearGradient8236);stroke-width:8.23995;stroke-dasharray:none;stroke-opacity:0.992157"
       d="m 255.76617,168.94549 c -20.20939,-0.84456 -38.58246,11.18654 -45.27685,29.64837 -3.18924,-0.95252 -6.48043,-1.52316 -9.80365,-1.6998 -23.06107,-1.00661 -42.52473,16.76578 -43.47262,39.69512 -0.94847,22.92854 16.97668,42.33151 40.03699,43.33776 3.22165,0.0818 6.11186,0.091 9.04015,0.0988 h 9.09335 c -0.0333,0.28728 -0.0524,0.49304 -0.0951,0.82993 -0.42644,3.37957 -1.33999,9.36957 -4.54288,14.98467 -3.20286,5.6151 -8.69392,10.85597 -13.18612,14.26677 -4.49219,3.41081 -7.98674,4.99157 -10.23287,5.94828 -2.24612,0.95672 -3.24448,1.29021 -0.79006,1.45668 2.45442,0.16649 8.36164,0.16624 14.1851,-0.0417 5.82345,-0.20803 11.56377,-0.62392 17.38714,-1.7055 5.82338,-1.08158 11.72968,-2.82924 16.38817,-5.24178 4.6585,-2.41253 8.06934,-5.49059 10.93937,-9.27569 2.87001,-3.78506 5.19869,-8.27694 7.02894,-12.14534 1.78464,-3.77207 3.08084,-6.91482 4.03198,-9.07626 H 391.475 c 17.69791,0 31.94639,-14.24848 31.94639,-31.94641 0,-14.34512 -9.36312,-26.41864 -22.33455,-30.48019 -1.54513,-19.84947 -18.19146,-35.47542 -38.72844,-36.35443 -17.05273,-0.68104 -32.68917,9.05423 -39.10636,24.34771 -3.95162,-1.90485 -8.26963,-2.98727 -12.67523,-3.17737 -3.99352,-0.1457 -7.97717,0.44463 -11.73893,1.73966 -4.42955,-19.84103 -22.13639,-34.31553 -43.07189,-35.20922 z"
       sodipodi:nodetypes="ccccccccssssssssscssccccccc" /><g
       id="g417"
       transform="matrix(0.06655091,0,0,0.06655091,253.73385,144.79358)"
       style="fill:#d0ffff;fill-opacity:1"><path
         d="m 701.47,1236 c 0,22.977 -9.786,6.046 -9.81,-0.023 -0.023,-5.77 -1.44,-4.202 -15.151,-16.634 -8.616,-7.812 -8.426,5.187 -7.54,7.142 3.938,8.692 3.924,17.995 4.798,27.263 4.308,45.676 -5.219,46.671 -8.279,57.723 -2.205,7.966 -6.561,-2.73 -8.142,3.532 -4.452,17.641 -7.821,-0.728 -8.961,-0.71 -2.144,0.032 -0.702,9.085 -4.632,9.497 -6.261,0.657 -5.645,-14.116 -4.555,-20.429 0.174,-1.008 1.07,-6.236 -0.154,-6.352 -1.646,-0.156 -1.382,5.246 -5.427,14.608 -2.212,5.121 -4.803,3.831 -6.214,-0.148 -3.499,-9.863 3.361,-16.156 -2.312,-19.797 -1.884,-1.209 -11.278,-32.762 -11.885,-37.887 -1.319,-11.129 -15.998,-22.341 -25.833,-47.619 -11.29,-29.018 0.704,-15.068 -59.593,-5.301 -5.714,0.926 -6.527,-5.008 -3.371,-7.71 4.092,-3.505 5.969,-7.049 7.68,-6.911 43.55,3.51 77.533,-45.758 132.25,-55.601 17.284,-3.109 14.047,9.308 35.883,11.586 4.67,0.488 8.309,8.101 36.847,1.298 33.897,-8.081 11.465,-5.217 42.456,5.645 3.837,1.345 13.935,2.903 12.695,6.815 -0.861,2.714 -11.627,-0.122 -13.279,-0.531 -9.49,-2.349 -10.864,4.735 -31.461,2.091 -12.289,-1.577 -24.14,-0.033 -35.933,3.292 -9.012,2.542 29.21,54.938 28.855,56.06 -0.811,2.568 -11.322,-1.481 -5.528,6.891 1.469,2.122 5.189,4.59 3.209,7.123 -2.916,3.729 -10.387,-3.781 -13.102,-6.318 -1.027,1.152 -0.552,1.47 3.811,13.52 2.764,7.631 -4.944,10.194 -11.937,-5.318 -6.228,-13.815 5.914,25.531 -4.586,16.302 -6.248,-5.491 -6.207,-12.585 -8.236,-22.392 -0.161,-0.777 -0.638,-1.489 -0.97,-2.231 -1.689,2.988 -1.431,-0.232 -1.431,11.526 -0.054,0 -0.106,0 -0.158,0 z m -61.931,56.048 c 0.167,0.698 -0.276,1.551 0.513,2.115 0.653,-1.517 2.687,-5.262 0.593,-4.918 -1.705,0.281 -0.84,1.8 -1.106,2.803 z"
         id="path375"
         style="fill:#d0ffff;fill-opacity:1" /><path
         d="m 1208.5,1130.1 c 0,22.978 -11.091,4.66 -10.737,-0.696 0.182,-2.756 -0.893,-4.245 -3.299,-5.412 -5.01,-2.431 -8.578,-6.823 -13.046,-10.016 -8.581,-6.132 -7.661,6.106 -6.821,8.051 7.062,16.347 7.625,65.938 0.375,71.192 -6.123,4.437 -1.159,13.1 -9.819,9.994 -4.997,-1.792 -2.609,9.046 -7.36,8.517 -6.398,-0.712 -2.964,-15.455 -7.423,-1.438 -2.205,6.933 -10.057,0.61 -8.341,-11.198 5.102,-35.111 -4.832,17.499 -11.288,3.403 -4.172,-9.113 3.118,-16.265 -2.801,-19.596 -1.096,-0.617 -1.829,-1.463 -2.047,-2.666 -2.036,-11.215 -8.651,-21.065 -10.178,-32.282 -1.736,-12.745 -11.279,-12.157 -30.14,-50.733 -3.433,-7.021 -2.655,-13.368 -10.102,-11.215 -85.588,24.746 -54.059,-4.69 -29.926,-3.432 23.595,1.229 21.341,-8.626 29.873,-11.336 8.025,-2.549 88.603,-52.717 108.84,-38.345 14.344,10.184 20.074,6.711 27.705,10.27 21.803,10.172 50.466,-11.707 61.273,-2.094 9.416,8.375 31.629,7.355 30.089,13.5 -0.764,3.048 -9.15,0.267 -11.671,-0.228 -11.8,-2.317 -9.21,1.613 -18.585,1.563 -11.997,-0.064 -23.995,-0.046 -35.992,-0.121 -6.224,-0.039 -11.808,3.126 -18.001,3.439 -7.232,0.365 8.901,21.987 9.969,23.288 3.999,4.871 5.87,11.153 9.81,16.136 10.094,12.765 11.47,11.236 10.58,13.925 -0.874,2.637 -14.07,-2.008 -4.102,8.102 3.419,3.469 3.383,5.816 -2.916,5.109 -6.419,-0.721 -6.817,-7.318 -9.267,-5.497 -1.655,1.23 0.876,2.911 4.05,11.873 2.381,6.724 -3.652,11.015 -13.334,-6.044 -5.652,-9.957 7.219,27.266 -4.536,16.348 -7.138,-6.63 -5.78,-12.674 -8.491,-20.759 -0.258,-0.771 0.336,-2.321 -1.165,-2.098 -1.132,0.168 -1.11,1.506 -1.119,2.502 -0.023,2.665 -0.01,5.33 -0.01,7.995 -0.019,0 -0.037,0 -0.054,0 z m -64.985,51.867 c 0.126,0.744 0.262,1.543 0.398,2.342 0.891,-0.291 2.22,-3.527 0.469,-3.786 -1.128,-0.167 -0.52,0.904 -0.867,1.444 z"
         id="path377"
         style="fill:#d0ffff;fill-opacity:1" /><path
         d="m 320.56,230.18 c 0,8.123 0.469,9.911 -1.916,10.625 -3.282,0.982 -8.149,-6.976 -7.899,-11.702 0.186,-3.516 -1.155,-5.465 -4.148,-7.096 -4.434,-2.415 -7.37,-6.685 -11.194,-9.884 -8.237,-6.89 -7.369,7.005 -6.261,8.986 4.852,8.677 9.517,66.984 -1.633,76.452 -3.201,2.718 0.372,12.152 -7.401,8.977 -4.916,-2.009 -3.141,15.636 -9.568,6.814 -1.997,-2.741 0.321,-5.971 -2.032,-5.98 -1.054,-0.004 -1.827,4.272 -1.926,5.211 -0.628,5.97 -4.828,5.656 -6.717,0.862 -2.712,-6.884 1.127,-31.694 -2.46,-19.673 -4.185,14.027 -4.741,14.936 -6.653,14.816 -3.442,-0.217 -5.108,-8.402 -3.547,-15.302 2.033,-8.982 -2.91,-7.056 -3.484,-10.441 -9.158,-53.983 -28.028,-54.861 -41.11,-97.042 -2.237,-7.212 -4.406,-2.211 -36.89,5.448 -3.582,0.845 -19.839,4.903 -20.931,1.227 -1.713,-5.769 5.662,-15.365 22.987,-13.716 19.383,1.845 20.235,-7.575 28.395,-11.806 14.66,-7.602 83.872,-54.791 101.06,-41.122 10.914,8.679 36.318,14.304 38.1,14.28 25.436,-0.332 37.019,-15.214 49.192,-2.831 4.037,4.107 17.14,5.905 22.242,8.043 5.799,2.431 4.536,6.471 -1.873,5.416 -8.442,-1.39 -11.244,-4.152 -16.859,-1.338 -5.524,2.768 -27.274,1.464 -31.589,0.685 -7.411,-1.337 -12.798,1.63 -23.9,3.72 -4.238,0.798 -4.456,1.219 -3.03,5.097 6.346,17.253 29.949,51.588 29.949,51.588 -0.583,2.171 -2.427,1.176 -3.768,1.247 -10.008,0.533 3.508,8.425 1.448,11.947 -4.13,7.061 -16.79,-12.198 -12.955,-2.034 4.97,13.174 5.029,13.951 3.487,14.85 -5.675,3.31 -10.74,-6.601 -12.07,-11.513 -0.952,-3.516 -2.856,-2.373 -2.002,0.57 8.268,28.489 -6.884,19.206 -8.825,2.612 -1.287,-11.001 -3.789,-10.923 -3.984,-6.977 -0.147,2.988 -0.055,5.988 -0.055,8.983 -0.061,0 -0.121,0 -0.181,0.001 z m -61.079,55.113 c 0.554,0.721 -0.509,1.95 0.593,2.814 0.86,-2.606 2.446,-6.209 0.532,-5.833 -1.633,0.321 -0.803,1.795 -1.125,3.019 z"
         id="path379"
         style="fill:#d0ffff;fill-opacity:1" /><path
         d="m 1594.5,1098.8 c -5.356,13.454 5.973,18.798 25.002,25.302 5.749,1.965 7.297,8.704 2.661,12.72 -1.758,1.522 -1.637,1.559 10.375,4.401 33.963,8.036 8.083,3.604 36.91,4.598 10.436,0.36 8.651,8.536 14.251,10.708 4.583,1.778 6.573,6.15 9.728,9.34 1.657,1.675 0.711,3.535 -0.595,4.865 -4.474,4.555 -4.489,-2.878 -17.299,-5.525 -25.706,-5.307 -8.509,-9.867 -65.363,-22.569 -24.182,-5.403 -30.455,5.235 -64.21,4.34 -29.092,-0.771 -44.238,4.552 -58.766,1.201 -1.744,-0.402 -3.824,-0.673 -5.425,-0.1 -6.167,2.21 -18.363,-7.17 -13.384,-21.008 3.584,-9.959 -35.649,-9.877 -48.436,-9.15 -5.462,0.311 -4.698,-5.27 -0.258,-5.809 62.469,-7.591 19.71,-2.836 67.838,-14.976 7.106,-1.792 19.797,-6.285 12.492,-10.03 -6.344,-3.252 -10.571,-6.756 -1.906,-50.146 0.323,-1.62 1.061,-10.511 3.194,-10.584 8.379,-0.287 5.218,-56.948 13.207,-28.573 2.406,8.544 4.01,-10.114 7.783,-10.4 4.249,-0.322 2.638,16.324 6.181,9.227 5.007,-10.021 8.193,-11.993 9.12,-0.292 0.692,8.745 5.857,-6.344 9.745,-5.177 4.548,1.366 -1.345,9.182 7.508,9.349 5.185,0.098 1.057,5.162 7.841,10.056 1.845,1.331 2.835,3.054 3.931,4.962 2.223,3.868 6.233,6.123 9.348,9.207 13.565,13.432 26.501,54.036 18.527,74.063 z"
         id="path381"
         style="fill:#d0ffff;fill-opacity:1" /><path
         d="m 222.26,1301.1 c 6.453,-1.636 99.069,-52.438 122.02,-36.904 11.164,7.557 21.372,7.468 23.669,8.546 22.846,10.722 50.752,-7.257 60.371,0.257 8.287,6.474 19.032,7.309 27.723,10.189 3.623,1.201 3.165,4.664 -0.879,4.146 -31.47,-4.032 -16.355,1.521 -39.927,-0.793 -34.01,-3.338 -18.868,-0.362 -37.536,0.911 -8.063,0.55 4.41,16.934 6.039,18.69 5.248,5.658 8.493,17.255 19.023,25.81 8.791,7.143 -12.29,-0.325 -3.835,9.007 5.346,5.9 1.254,7.736 -4.326,4.756 -3.669,-1.959 -10.566,-12.571 -2.834,6.598 3.251,8.057 -7.703,5.398 -12.279,-5.83 -3.496,-8.58 0.038,10.575 0.007,11.801 -0.194,7.68 -9.922,1.911 -11.602,-11.873 -0.957,-7.849 -3.78,-10.798 -4.337,8.088 -0.317,10.749 -10.72,-0.198 -9.934,-7.085 0.163,-1.431 -0.297,-2.761 -1.671,-3.329 -9.743,-4.027 -17.626,-17.951 -20.829,-8.066 -0.59,1.823 -0.775,3.543 0.189,5.297 3.422,6.229 2.996,13.2 3.726,19.93 4.333,39.987 -8.262,41.398 -10.797,50.233 -1.529,5.328 -5.961,-5.18 -8.429,3.198 -0.639,2.168 -1.554,4.243 -3.735,4.001 -5.407,-0.6 -2.227,-13.651 -7.365,-1.417 -2.283,5.434 -8.41,0.701 -7.61,-8.484 0.52,-5.977 2.009,-7.642 1.138,-11.064 -2.211,2.22 -7.328,20.678 -11.988,12.022 -4.724,-8.776 4.644,-14.135 -2.8,-17.672 -0.375,-0.178 -0.812,-0.833 -0.762,-1.203 0.544,-3.983 -2.441,-6.667 -3.503,-9.981 -2.706,-8.448 -6.621,-16.597 -7.293,-25.636 0,0 -21.789,-23.546 -29.317,-46.254 -1.922,-5.798 -3.692,-2.477 -38.486,3.263 -12.297,2.029 -29.297,3.317 -19.859,-4.808 14.308,-12.316 16.584,-0.908 38.028,-6.344 z m 77.898,92.395 c 0.458,-1 0.971,-2.16 0.02,-2.897 -0.58,1.003 -1.101,2.055 -0.02,2.897 z"
         id="path383"
         style="fill:#d0ffff;fill-opacity:1" /><path
         d="m 1081.6,517.04 c -2.794,2.809 -4.158,15.045 -8.476,14.625 -3.847,-0.374 -4.712,-7.532 -4,-10.564 0.831,-3.54 1.789,-7.291 -2.585,-9.553 -0.461,-0.238 -0.898,-1.159 -0.824,-1.691 0.455,-3.271 -1.864,-5.406 -2.914,-8.075 -3.294,-8.372 -7.759,-16.433 -8.219,-25.723 -0.053,-1.067 -0.348,-2.045 -1.327,-2.516 -5.827,-2.804 -8.09,-8.865 -12.229,-13.188 -40.734,-42.54 10.561,-36.072 -65.257,-23.873 -24.213,3.896 -11.86,-13.104 9.653,-11.629 9.569,0.656 18.666,-0.091 26.403,-7.236 4.386,-4.049 10.874,-4.733 16.278,-7.273 114.37,-53.732 80.222,-22.219 117.08,-21.186 0.799,0.022 1.633,0.34 2.374,0.686 16.31,7.622 41.053,-2.56 51.654,-3.079 10.954,-0.537 -0.176,-0.303 27.942,8.42 23.255,7.215 3.112,6.55 -1.374,4.874 -7.146,-2.67 -16.585,3.79 -31.912,1.575 -19.76,-2.857 -31.137,1.805 -36.959,2.638 -11.198,1.602 29.142,44.848 28.334,46.737 -0.693,1.622 -2.641,0.717 -4.04,0.882 -8.999,1.066 9.316,11.209 -0.033,11.043 -3.728,-0.066 -6.669,-1.742 -9.036,-4.519 -8.599,-10.089 10.062,19.715 -2.649,14.092 -5.482,-2.425 -5.927,-6.874 -8.595,-8.767 -0.38,-5.757 -2.708,-2.365 -0.574,0.483 1.233,10.997 3.025,17.665 -3.451,13.086 -8.815,-6.232 -8.413,-27.823 -10.753,-18.373 -1.699,6.859 1.061,15.511 -2.105,16.795 -3.071,1.245 -8.172,-4.118 -8.331,-10.326 -0.041,-1.592 -0.276,-3.249 -1.823,-3.812 -8.604,-3.133 -15.829,-13.847 -19.64,-10.595 -2.232,1.905 -2.619,5.312 -1.315,7.894 5.839,11.561 6.364,43.179 3.417,56.511 -1.868,8.449 -3.848,3.717 -7.031,12.669 -2.884,8.109 -6.541,-2.438 -8.747,3.901 -1.066,3.063 -1.383,5.674 -4.008,5.579 -5.253,-0.191 -3.61,-12.573 -6.954,-2.731 -3.568,10.505 -10.959,-2.125 -8.259,-10.177 0.807,-2.405 1.703,-5.103 0.199,-7.701 0.52,0.016 1.075,0.056 0.497,-0.704 -0.136,0.269 -0.272,0.535 -0.409,0.801 z m 2.091,-4.022 c -0.647,-5.542 -2.069,0.67 -0.486,1.151 0.045,0.013 0.341,-0.802 0.486,-1.151 z"
         id="path385"
         style="fill:#d0ffff;fill-opacity:1" /><path
         d="m 1532.2,610 c 7.823,1.805 3.455,5.799 12.726,9.624 13.011,5.367 8.703,17.144 1.068,10.92 -8.607,-7.017 -20.454,-2.47 -29.049,-10.18 -5.642,-5.061 -65.263,-18.392 -67.297,-17.158 -12.427,7.538 -119.61,5.2 -120.61,5.195 -7.751,-0.039 -16.796,-9.894 -12.254,-17.959 4.343,-7.71 -32.963,-10.01 -41.236,-9.509 -8.422,0.51 -11.486,2.692 -11.894,-1.564 -0.215,-2.239 -1.306,-4.136 26.82,-4.226 18.317,-0.058 10.553,-3.861 47.427,-10.173 8.773,-1.502 21.044,-5.152 13.366,-8.09 -11.142,-4.264 -7.917,-12.287 -0.41,-46.973 2.007,-9.271 5.203,-1.626 6.815,-7.406 2.46,-8.816 4.001,-38.79 9.203,-25.294 3.827,9.928 3.278,5.373 6.425,-2 1.059,-2.48 3.88,-3.903 5.865,0.482 0.848,1.873 -0.301,5.274 1.962,5.609 2.799,0.414 4.018,-9.673 8.191,-7.836 4.588,2.02 1.551,7.957 3.601,8.966 2.41,1.186 5.423,-7.811 9.754,-6.095 4.102,1.625 -0.864,8.014 5.575,7.717 3.517,-0.163 5.663,1.437 6.28,4.999 0.233,1.345 15.887,15.011 18.278,16.578 14.012,9.182 8.344,13.914 12.538,20.254 23.473,35.478 -12.016,49.063 14.343,58.753 17.583,6.464 20.467,4.963 22.119,11.02 2.374,8.706 -14.733,3.13 9.6,9.586 26.742,7.093 28.351,1.889 40.793,4.76 z"
         id="path387"
         style="fill:#d0ffff;fill-opacity:1" /><path
         d="m 787.83,225.44 c -0.178,-5.932 31.692,-1.421 47.674,-8.779 11.238,-5.174 31.252,-5.851 39.757,-10.445 4.551,-2.459 0.887,-4.932 -0.114,-5.213 -8.379,-2.353 -8.756,-7.851 -1.18,-44.473 0.207,-1 1.867,-7.227 3.108,-7.075 9.323,1.139 3.837,-29.306 10.408,-29.384 3.632,-0.043 3.662,11.865 6.285,6.058 9.427,-20.871 7.296,-1.043 10.384,-0.575 2.164,0.328 4.098,-8.984 7.808,-7.931 5.61,1.593 1.153,13.783 6.963,6.96 10.436,-12.256 7.312,3.985 12.705,2.878 6.114,-1.255 1.826,3.797 17.371,16.367 5.784,4.677 12.939,7.736 16.678,14.838 1.295,2.461 0.677,5.148 2.028,7.589 5.171,9.345 14.636,25.574 7.305,44.623 -1.176,3.056 -0.093,6.094 -1.202,9.079 -1.507,4.055 24.783,12.727 29.064,13.3 3.827,0.512 5.613,6.547 2.982,9.55 -1.284,1.465 -2.302,2.192 0.465,2.758 9.248,1.892 18.42,4.335 27.753,5.573 14.826,1.966 24.355,-4.015 29.772,5.241 0.983,1.68 2.339,2.889 4.078,3.496 4.374,1.527 7.368,4.819 10.476,7.949 3.806,3.832 -2.663,7.071 -5.883,4.564 -8.919,-6.946 -22.951,-2.284 -30.803,-10.771 -2.275,-2.459 -64.811,-17.983 -68.234,-15.028 -6.442,5.561 -120.88,7.982 -116.29,6.895 -8.505,2.013 -19.233,-8.804 -15.908,-16.479 1.569,-3.623 3.847,-6.876 -17.605,-8.865 -32.432,-3.009 -35.69,2.469 -35.845,-2.7 z"
         id="path389"
         style="fill:#d0ffff;fill-opacity:1" /><path
         d="m 654.52,307.21 c 14.268,3.902 0.629,11.224 5.685,12.947 33.913,11.562 51.333,-0.272 58.071,10.762 1.453,2.38 23.096,13.524 13.271,16.78 -1.828,0.606 -3.714,0.417 -5.19,-0.901 -8.014,-7.152 -21.406,-2.087 -29.174,-9.735 -3.137,-3.089 -43.905,-12.693 -49.142,-13.489 -44.221,-6.72 -165.29,23.806 -151.36,-13.309 2.19,-5.837 -9.136,-5.183 -14.59,-6.531 -11.787,-2.913 -13.527,-3.552 -34.986,-1.297 -6.539,0.687 -6.371,-4.994 -0.663,-5.301 29.821,-1.604 36.086,-2.67 43.231,-5.809 13.075,-5.746 29.121,-5.385 39.338,-10.091 10.728,-4.942 -7.249,-2.462 -5.661,-18.1 0.103,-1.012 4.015,-39.715 10.036,-39.066 5.358,0.577 3.482,-31.177 8.576,-30.556 3.839,0.468 1.186,8.046 4.914,8.214 3.08,0.139 2.576,-10.68 7.104,-10.038 4.307,0.611 1.777,8.71 4.482,9.078 2.047,0.279 3.919,-9.372 7.928,-8.416 4.187,0.999 2.142,8.017 4.215,8.69 2.964,0.962 4.82,-7.432 9.176,-6.103 5.03,1.535 0.113,8.1 5.827,7.393 7.331,-0.907 4.011,6.088 10.51,9.03 1.164,0.527 2.605,1.049 3.132,2.361 2.021,5.035 7.239,6.316 10.91,9.395 16.956,14.224 7.348,10.976 13.796,21.156 27.023,42.664 -23.43,48.169 30.564,62.936 z"
         id="path391"
         style="fill:#d0ffff;fill-opacity:1" /><path
         d="m 1836.4,876.05 c 12.844,-0.792 10.51,6.708 17,9.138 4.053,1.517 15.794,9.921 8.943,12.744 -1.649,0.68 -3.47,0.674 -4.755,-0.469 -8.105,-7.205 -20.504,-2.604 -29.246,-9.547 -6.526,-5.184 -64.932,-19.813 -74.484,-14.375 -72.765,2.418 -123.74,14.917 -127.89,-7.005 -1.093,-5.77 5.321,-8.666 -1.915,-10.34 -22.981,-5.316 -33.454,-5.122 -45.795,-3.302 -6.914,1.02 -8.597,-5.394 2.308,-5.63 30.36,-0.656 35.598,-3.411 42.022,-6.315 8.773,-3.966 29.694,-5.396 38.261,-9.767 4.211,-2.149 -0.754,-5.688 -1.754,-5.954 -5.342,-1.422 -9.097,-3.418 0.662,-45.931 1.985,-8.646 5.025,-0.353 6.621,-7.575 4.057,-18.372 0.911,-17.072 4.021,-24.93 3.485,-8.809 4.984,5.802 6.921,5.774 2.618,-0.038 4.799,-17.15 9.656,-7.761 1.484,2.869 -0.607,5.549 2.286,5.828 2.674,0.257 3.494,-8.927 7.927,-7.632 3.253,0.95 3.216,6.093 3.326,7.194 0.515,5.14 4.205,-2 6.809,-3.967 7.597,-5.74 2.382,8.031 10.319,6.527 5.84,-1.106 2.589,6.543 9.38,8.973 0.46,0.165 1.052,0.389 1.261,0.765 4.012,7.23 12.153,9.709 17.611,15.315 8.284,8.509 3.715,8.709 7.662,14.993 14.405,22.932 7.898,37.589 5.49,52.245 -1.035,6.302 31.023,11.789 32.599,17.096 2.824,9.511 -11.107,6.505 8.339,10.33 15.314,3.012 13.826,4.971 36.417,3.578 z"
         id="path393"
         style="fill:#d0ffff;fill-opacity:1" /><path
         d="m 1067.5,1373.1 c 9.497,0.23 7.88,7.847 14.773,9.794 2.312,0.653 14.48,8.797 8.035,11.883 -1.55,0.742 -3.498,0.788 -4.8,-0.285 -5.665,-4.671 -12.699,-4.407 -19.312,-5.504 -11.05,-1.833 -8.185,-5.076 -17.097,-7.488 -94.336,-25.522 -47.862,-4.403 -121.02,-7.815 -17.276,-0.806 -69.185,11.403 -74.127,-8.946 -1.638,-6.745 5.415,-10.202 -1.845,-11.582 -41.558,-7.892 -42.626,-2.896 -46.351,-3.332 -1.807,-0.212 -4.51,1.138 -4.942,-1.782 -0.775,-5.244 20.992,-3.866 36.15,-5.887 7.184,-0.958 13.452,-4.656 20.309,-6.615 8.367,-2.391 39.675,-4.838 31.802,-11.72 -3.81,-3.33 -8.539,-1.084 -7.516,-12.136 0.571,-6.17 5.272,-38.941 7.662,-39.265 9.418,-1.279 5.568,-20.328 8.764,-28.347 1.863,-4.675 3.485,-3.078 4.522,-0.034 5.06,14.863 4.176,-5.775 9.847,-4.763 4.05,0.722 2.41,8.324 4.108,8.703 2.99,0.667 3.489,-8.81 8.401,-7.798 4.802,0.989 1.806,7.802 4.32,8.621 2.059,0.67 1.625,-1.94 5.523,-5.255 2.78,-2.364 5.346,-1.704 5.632,1.846 0.295,3.66 1.283,4.936 5.119,4.36 4.847,-0.728 2.47,4.532 9.414,9.124 0.416,0.275 0.998,0.445 1.232,0.829 4.262,7.002 12.202,9.724 17.722,15.264 9.242,9.274 2.825,8.288 8.458,16.77 7.363,11.088 11.121,27.282 4.419,50.393 -1.251,4.315 22.797,11.593 26.706,12.75 12.917,3.82 0.589,11.631 4.415,12.539 36.99,8.792 24.433,5.066 49.675,5.678 z"
         id="path395"
         style="fill:#d0ffff;fill-opacity:1" /><path
         d="m 1232.3,871.79 c -0.171,-4.289 2.265,-1.677 36.936,-5.671 7.116,-0.82 13.422,-4.62 20.294,-6.554 6.896,-1.941 38.627,-4.648 30.257,-11.739 -2.153,-1.823 -8.526,-0.149 -7.089,-14.465 0.325,-3.232 4.147,-38.04 9.95,-37.351 4.858,0.577 4.853,-41.897 10.462,-28.752 0.427,1 2.451,10.443 4.69,4.726 7.776,-19.854 8.129,0.033 9.997,0.186 2.487,0.204 3.523,-8.765 7.891,-7.844 2.721,0.573 3.117,3.546 3.202,6.145 0.276,8.405 6.563,-5.69 10.438,-3.866 4.74,2.23 -0.766,7.931 6.427,7.505 6.297,-0.373 4.206,5.959 7.799,7.788 2.865,1.459 4.651,3.914 6.735,6.295 3.124,3.57 20.847,13.205 20.231,20.242 -0.692,7.903 19.274,22.545 7.139,57.712 -0.603,1.747 1.223,2.392 2.456,3.258 16.613,11.657 31.491,6.039 30.445,17.182 -0.425,4.529 -5.287,4.278 0.774,5.593 67.084,14.555 30.636,-9.904 71.292,22.675 2.68,2.148 -2.32,6.794 -5.053,4.557 -9.209,-7.537 -23.473,-3.637 -29.719,-9.697 -4.784,-4.641 -43.279,-13.163 -49.865,-14.236 -44.067,-7.181 -164.67,24.741 -151.84,-13.843 1.296,-3.898 -2.426,-4.109 -4.365,-4.427 -5.591,-0.917 -15.618,-3.255 -23.478,-4.218 -11.175,-1.369 -25.81,3.757 -26.008,-1.201 z"
         id="path397"
         style="fill:#d0ffff;fill-opacity:1" /></g></g></svg>
